<?xml version="1.0" standalone="no"?>
<!DOCTYPE svg PUBLIC "-//W3C//DTD SVG 20010904//EN"
 "http://www.w3.org/TR/2001/REC-SVG-20010904/DTD/svg10.dtd">
<svg version="1.0" xmlns="http://www.w3.org/2000/svg"
 width="2003.000000pt" height="1956.000000pt" viewBox="0 0 2003.000000 1956.000000"
 preserveAspectRatio="xMidYMid meet">

<g transform="translate(0.000000,1956.000000) scale(0.100000,-0.100000)"
fill="#000000" stroke="none">
<path d="M9653 19538 c-6 -8 -13 -246 -16 -621 l-7 -608 28 -10 c28 -11 99 -6
113 8 4 4 11 281 15 614 l7 607 -21 11 c-28 15 -107 14 -119 -1z"/>
<path d="M10178 19350 c-12 -7 -18 -24 -18 -49 0 -21 -3 -65 -6 -99 l-7 -61
-62 6 c-36 3 -65 2 -68 -4 -4 -6 -9 -28 -13 -50 -9 -55 11 -73 82 -73 64 0 59
27 39 -230 -26 -339 -20 -409 45 -471 47 -45 108 -63 201 -57 60 3 74 8 90 27
20 24 26 95 10 106 -6 3 -31 0 -56 -6 -35 -9 -56 -9 -86 0 -74 22 -81 69 -54
411 8 102 15 191 15 197 0 9 13 11 43 8 141 -15 166 -15 182 1 20 21 17 93 -5
105 -8 4 -59 11 -113 15 l-99 6 7 103 c5 70 4 105 -4 109 -20 13 -106 17 -123
6z"/>
<path d="M7890 19315 c-195 -54 -327 -199 -360 -396 -34 -202 30 -467 149
-616 108 -136 295 -194 476 -148 149 38 295 141 295 208 0 41 -18 97 -32 97
-5 0 -35 -23 -66 -51 -175 -157 -400 -168 -527 -27 -88 97 -152 308 -142 468
12 176 81 278 222 326 71 24 184 22 260 -6 90 -33 96 -34 105 -20 11 18 1 79
-17 108 -38 61 -237 92 -363 57z"/>
<path d="M9203 19153 c-17 -2 -36 -10 -41 -16 -7 -8 -3 -111 10 -295 l20 -283
-40 -52 c-95 -127 -231 -156 -307 -65 -40 48 -52 113 -71 388 -20 300 -19 296
-98 286 -27 -3 -54 -10 -60 -16 -12 -12 19 -506 39 -604 34 -163 131 -243 287
-234 92 4 149 31 223 105 l55 55 0 -55 c0 -68 13 -81 76 -74 25 2 50 9 54 13
11 11 -45 823 -57 834 -12 12 -53 18 -90 13z"/>
<path d="M10782 19069 c-15 -39 -75 -508 -76 -584 -1 -169 93 -278 254 -292
74 -7 150 15 222 65 l56 40 -6 -64 c-5 -70 -12 -62 71 -79 50 -10 52 -2 106
395 28 206 53 389 56 407 4 24 1 34 -12 41 -26 15 -106 24 -120 14 -7 -4 -27
-119 -49 -287 l-38 -280 -38 -38 c-94 -91 -212 -117 -283 -63 -75 58 -80 120
-35 449 33 239 35 273 20 282 -6 4 -35 9 -65 12 -51 5 -55 4 -63 -18z"/>
<path d="M13361 18991 c-9 -6 -64 -230 -147 -592 -74 -321 -134 -590 -134
-597 0 -34 134 -57 144 -24 25 84 266 1169 262 1179 -10 24 -102 49 -125 34z"/>
<path d="M11793 18928 c-6 -7 -46 -192 -88 -411 -88 -452 -89 -424 8 -434 53
-5 56 -4 62 18 3 13 27 135 53 271 53 272 49 263 146 335 48 35 66 43 102 43
26 0 62 -9 86 -21 52 -27 67 -14 75 64 l6 57 -44 20 c-51 23 -126 26 -172 6
-18 -7 -55 -31 -83 -54 l-52 -41 9 37 c20 86 10 103 -62 117 -24 4 -39 2 -46
-7z"/>
<path d="M14541 18855 c-90 -20 -234 -94 -314 -160 -144 -119 -262 -308 -314
-502 -24 -88 -27 -116 -27 -273 0 -158 3 -185 27 -275 44 -162 127 -317 229
-426 135 -145 328 -280 328 -229 0 6 -51 65 -112 131 -150 161 -207 235 -261
338 -211 404 -133 860 192 1125 128 104 229 150 431 196 73 17 137 33 142 37
6 3 -11 15 -38 26 -65 25 -198 31 -283 12z"/>
<path d="M15391 18799 c-24 -5 -46 -10 -48 -13 -2 -2 33 -16 79 -31 249 -82
404 -205 495 -394 l36 -74 -19 -35 c-45 -83 -245 -211 -387 -247 -182 -45
-308 -40 -518 21 -154 44 -291 114 -454 229 -68 48 -144 89 -152 81 -8 -8 34
-57 85 -100 113 -94 338 -222 498 -283 231 -89 385 -97 635 -33 66 17 84 19
90 8 15 -22 10 -171 -7 -220 -22 -65 -74 -113 -148 -137 -86 -29 -175 -48
-288 -61 -54 -7 -105 -18 -115 -26 -17 -12 -17 -14 2 -28 45 -34 154 -32 314
5 46 11 86 17 89 14 12 -12 -22 -128 -62 -210 -50 -102 -136 -204 -214 -254
-27 -17 -107 -53 -178 -80 -159 -60 -184 -72 -184 -84 0 -18 191 1 310 31 215
55 373 133 510 252 163 142 302 380 346 595 26 129 25 321 -4 438 -25 100 -73
209 -128 292 -149 225 -405 376 -583 344z"/>
<path d="M12445 18765 c-27 -7 -57 -23 -67 -35 -21 -26 -24 -88 -5 -96 7 -2
42 2 78 11 169 39 310 -4 340 -105 9 -28 9 -54 1 -100 -7 -35 -14 -65 -17 -68
-2 -3 -50 5 -105 17 -193 41 -312 23 -391 -58 -54 -56 -73 -114 -67 -198 6
-85 47 -142 135 -185 61 -30 77 -33 153 -33 72 0 94 4 144 27 l58 28 -6 -43
c-8 -52 2 -63 60 -73 28 -4 43 -2 50 8 11 14 130 532 140 610 14 107 -38 203
-138 254 -100 51 -257 68 -363 39z m213 -484 c45 -10 85 -20 87 -23 8 -8 -25
-150 -39 -167 -20 -25 -130 -71 -170 -71 -98 0 -165 47 -173 123 -7 62 17 110
70 136 52 26 115 27 225 2z"/>
<path d="M6487 18585 c-264 -67 -383 -262 -317 -519 48 -191 155 -321 295
-361 91 -27 223 -3 330 59 57 34 132 117 156 173 29 67 36 190 15 273 -22 87
-86 216 -136 273 -82 92 -219 133 -343 102z m141 -141 c138 -57 246 -330 186
-472 -47 -113 -206 -175 -319 -123 -149 67 -247 371 -162 500 61 92 197 136
295 95z"/>
<path d="M5810 18309 c-77 -35 -100 -66 -131 -174 l-17 -60 -25 58 c-28 61
-37 66 -90 44 -68 -29 -73 -12 115 -421 155 -338 174 -376 195 -376 25 0 98
33 108 49 3 6 -45 119 -106 253 -74 160 -112 253 -110 273 3 57 32 149 57 182
23 30 47 41 127 58 34 7 35 34 4 90 -27 49 -60 55 -127 24z"/>
<path d="M4897 18099 c-21 -11 -40 -26 -43 -33 -3 -8 13 -50 35 -95 23 -44 41
-85 41 -91 0 -5 -22 -21 -49 -35 -27 -13 -52 -29 -55 -34 -10 -16 24 -90 44
-96 11 -3 41 5 70 20 29 15 53 25 55 23 1 -2 55 -106 118 -233 63 -126 129
-249 147 -273 37 -51 96 -82 160 -82 87 0 220 84 220 139 0 23 -33 91 -44 91
-3 0 -25 -18 -50 -39 -25 -22 -59 -42 -75 -46 -36 -8 -82 14 -109 52 -33 47
-234 455 -227 462 4 3 46 26 93 51 71 37 88 50 90 71 3 28 -31 79 -54 79 -8 0
-55 -20 -104 -45 l-90 -45 -45 90 c-50 100 -59 105 -128 69z"/>
<path d="M9580 17960 c-358 -14 -608 -40 -985 -101 -682 -110 -1595 -345
-2138 -548 -611 -229 -1222 -491 -1284 -550 -28 -27 -29 -46 -3 -88 24 -40
125 -116 185 -138 77 -30 42 -43 795 283 714 308 1539 540 2340 656 544 79
847 100 1440 101 488 0 623 -6 970 -41 1013 -102 2081 -362 2930 -714 91 -38
177 -72 192 -75 27 -7 27 -6 21 32 -17 113 -75 205 -164 263 -82 53 -269 130
-269 111 0 -14 66 -69 158 -131 82 -55 189 -156 178 -167 -4 -4 -1177 451
-1206 468 -39 23 265 -14 334 -41 43 -16 74 -12 86 10 16 30 3 57 -38 85 -44
28 -345 146 -522 203 -417 135 -1045 270 -1430 307 -56 5 -63 4 -50 -8 8 -8
53 -26 100 -40 149 -46 348 -153 445 -240 46 -42 41 -43 -71 -22 -127 23 -604
83 -794 99 -540 47 -1072 45 -1670 -4 -201 -16 -374 -29 -385 -29 -30 1 83 35
230 68 329 76 716 128 1045 141 211 9 302 18 317 33 10 11 -9 66 -25 73 -25
11 -485 13 -732 4z"/>
<path d="M10551 17935 c-35 -8 -66 -17 -69 -20 -12 -12 92 -46 160 -51 74 -5
168 11 171 30 1 6 -13 19 -31 29 -44 26 -147 31 -231 12z"/>
<path d="M4437 17621 c-95 -38 -160 -112 -194 -217 -9 -29 -20 -51 -25 -48 -4
3 -17 23 -28 45 -22 43 -42 49 -89 25 -62 -33 -68 -17 146 -407 109 -199 204
-363 210 -366 17 -7 101 35 112 55 7 13 -27 82 -130 269 l-138 252 14 53 c39
152 93 208 197 208 54 0 105 -33 147 -94 16 -23 82 -139 147 -257 64 -118 122
-217 127 -221 15 -9 77 18 104 45 l23 22 -91 165 c-210 383 -238 423 -324 465
-57 27 -148 30 -208 6z"/>
<path d="M14752 17571 c-19 -11 47 -67 95 -80 54 -15 128 -13 170 4 l36 15
-22 24 c-18 19 -38 25 -122 35 -118 13 -140 13 -157 2z"/>
<path d="M13300 17292 c0 -30 124 -102 198 -116 84 -15 -14 66 -127 104 -68
23 -71 23 -71 12z"/>
<path d="M3630 17147 c-123 -35 -222 -112 -272 -214 -29 -60 -32 -75 -32 -152
1 -138 63 -277 176 -393 139 -144 313 -154 501 -28 93 62 187 161 187 197 0
27 -35 83 -51 83 -6 0 -44 -36 -86 -80 -173 -184 -344 -202 -463 -47 -36 48
-38 53 -22 65 9 7 117 72 239 143 124 73 225 138 228 148 7 24 -1 45 -46 112
-90 134 -235 201 -359 166z m129 -143 c45 -23 111 -90 111 -113 0 -6 -332
-205 -361 -216 -36 -14 -63 123 -39 204 13 47 64 98 125 127 64 31 99 30 164
-2z"/>
<path d="M2760 16974 c-94 -25 -178 -72 -246 -139 -173 -170 -187 -415 -38
-682 95 -168 226 -287 363 -327 187 -55 419 40 546 223 59 85 65 118 31 176
-15 25 -33 45 -41 45 -8 0 -31 -33 -52 -72 -49 -94 -115 -161 -201 -201 -57
-27 -78 -32 -142 -32 -99 1 -153 27 -245 119 -83 83 -144 181 -181 292 -22 68
-26 91 -22 164 5 99 24 144 88 208 23 23 66 53 95 67 58 29 172 49 221 40 41
-7 64 2 64 27 0 31 -39 88 -67 99 -35 13 -109 10 -173 -7z"/>
<path d="M14198 16748 c-8 -7 -25 -40 -38 -73 -32 -83 -122 -260 -172 -336
-54 -84 -217 -288 -263 -327 -46 -41 -72 -47 -148 -33 -96 17 -1173 81 -1547
91 -341 10 -1126 2 -2070 -21 -261 -6 -864 -12 -1340 -13 -774 -1 -914 1
-1330 22 -478 24 -586 33 -1185 101 -527 60 -665 64 -593 17 50 -32 614 -108
1118 -151 930 -78 1488 -87 3750 -65 1011 10 1834 1 2555 -30 354 -15 659 -40
674 -56 3 -2 -3 -27 -13 -54 -45 -125 21 -133 186 -24 52 34 93 54 111 54 92
0 1038 -150 1162 -184 81 -22 114 -26 140 -16 33 12 34 54 3 74 -19 11 -400
80 -1108 198 -69 12 -129 25 -134 29 -5 4 15 45 44 90 93 145 183 383 214 568
24 143 21 169 -16 139z"/>
<path d="M14600 16730 c0 -5 22 -27 50 -47 87 -67 117 -171 66 -230 l-25 -28
-73 36 c-132 66 -158 61 -60 -11 31 -24 107 -91 167 -150 281 -272 324 -303
414 -304 108 -1 185 67 185 162 -1 112 -99 221 -324 357 -52 32 -142 89 -199
127 -130 88 -201 119 -201 88z"/>
<path d="M17131 16339 c-326 -230 -443 -318 -447 -336 -7 -27 22 -75 152 -249
156 -208 284 -282 473 -272 215 12 475 189 569 386 30 62 37 89 40 157 8 152
-30 251 -178 461 -103 147 -118 164 -145 164 -13 0 -212 -134 -464 -311z m536
23 c39 -59 79 -131 88 -159 24 -73 17 -191 -15 -258 -32 -68 -158 -189 -251
-242 -180 -102 -333 -94 -460 24 -70 65 -174 213 -163 230 9 13 714 513 724
513 3 0 37 -48 77 -108z"/>
<path d="M4811 16584 c-13 -9 -32 -35 -42 -58 -48 -105 4 -241 113 -297 78
-40 179 -33 235 16 l28 23 -21 29 c-14 19 -45 37 -95 55 -80 30 -114 59 -104
92 3 12 8 42 12 67 5 39 2 50 -16 68 -25 25 -77 28 -110 5z"/>
<path d="M4545 16314 c-46 -24 -64 -44 -77 -85 -23 -79 48 -181 168 -240 83
-41 156 -48 217 -21 31 14 47 27 47 39 0 38 -42 85 -123 137 -87 56 -147 115
-147 144 0 41 -36 52 -85 26z"/>
<path d="M4314 16181 c-56 -34 -70 -127 -34 -224 41 -109 186 -210 300 -210
58 0 124 25 118 45 -9 25 -57 50 -133 69 -170 44 -191 77 -170 267 l8 72 -29
0 c-16 0 -43 -9 -60 -19z"/>
<path d="M15483 16088 c-6 -7 -25 -42 -44 -77 -38 -72 -79 -105 -160 -126 -29
-8 -59 -21 -68 -30 -15 -15 -13 -18 13 -42 26 -22 37 -25 85 -21 70 5 124 31
178 84 77 77 97 214 32 222 -14 2 -30 -3 -36 -10z"/>
<path d="M15630 15870 c-26 -62 -127 -131 -243 -165 l-57 -16 29 -42 c15 -23
37 -62 48 -87 61 -139 192 -190 302 -117 63 42 86 95 86 197 0 103 -27 171
-86 225 -48 43 -63 44 -79 5z"/>
<path d="M4223 15787 c-69 -40 -104 -56 -150 -67 -98 -23 -167 -95 -194 -203
-16 -67 1 -126 52 -172 21 -19 50 -37 64 -41 98 -25 216 68 264 208 40 114 38
266 -3 281 -7 3 -22 0 -33 -6z"/>
<path d="M4722 15705 c-127 -39 -210 -163 -188 -280 4 -19 22 -54 40 -77 l32
-43 90 1 c72 0 100 5 137 23 118 57 163 184 105 296 -21 41 -49 64 -95 81 -47
16 -66 16 -121 -1z"/>
<path d="M1525 15634 c-38 -8 -113 -36 -165 -61 -80 -39 -108 -59 -186 -137
-73 -73 -99 -107 -133 -176 -48 -97 -69 -192 -55 -242 10 -32 10 -32 42 57 49
133 96 211 177 291 71 70 175 134 220 134 48 0 128 -117 176 -260 27 -80 33
-114 37 -217 5 -137 -3 -197 -50 -343 -43 -134 -86 -214 -229 -427 -76 -112
-73 -139 7 -57 102 105 260 387 318 567 47 145 52 285 16 477 -5 24 -6 48 -4
52 3 5 33 8 68 8 48 0 75 -6 117 -27 89 -46 110 -104 129 -352 12 -155 19
-177 45 -138 24 37 29 134 12 250 -7 54 -11 100 -8 101 14 9 123 -34 174 -68
65 -43 149 -132 176 -185 11 -20 30 -74 44 -121 14 -47 36 -119 48 -160 l23
-75 9 53 c13 67 -12 271 -48 397 -87 307 -312 554 -578 635 -141 43 -258 50
-382 24z"/>
<path d="M17790 15436 c-72 -21 -118 -43 -191 -91 -221 -147 -267 -350 -129
-565 48 -74 141 -170 188 -194 31 -16 35 -16 64 1 17 10 36 26 42 36 9 16 6
23 -24 45 -61 46 -145 135 -172 185 -33 58 -48 136 -38 183 11 47 56 111 104
146 21 15 42 28 46 28 4 0 71 -101 149 -224 78 -123 148 -229 156 -236 44 -36
196 78 257 192 19 36 23 58 23 133 0 80 -3 97 -30 149 -41 81 -112 156 -180
191 -47 23 -73 29 -139 32 -47 1 -100 -3 -126 -11z m231 -141 c108 -57 152
-199 90 -297 -27 -42 -78 -88 -98 -88 -8 0 -233 351 -233 364 0 7 39 24 85 37
42 11 118 3 156 -16z"/>
<path d="M5077 15392 c-48 -53 8 -137 162 -241 86 -59 188 -104 296 -132 75
-20 116 -23 250 -24 88 0 204 6 258 14 54 7 100 11 104 8 3 -4 -27 -40 -68
-80 -68 -68 -80 -75 -153 -98 -57 -17 -105 -41 -170 -86 -85 -59 -95 -63 -146
-63 -144 0 -298 32 -407 85 -131 64 -192 155 -223 333 -16 94 -25 112 -55 112
-14 0 -35 -10 -46 -21 -19 -19 -21 -28 -15 -90 21 -210 144 -376 351 -475 72
-35 222 -73 286 -74 20 0 38 -3 41 -6 4 -3 -5 -22 -19 -42 -23 -34 -25 -43
-20 -125 l5 -87 -107 -110 c-88 -90 -118 -114 -174 -140 -38 -17 -87 -44 -109
-61 -44 -32 -111 -54 -194 -64 -59 -8 -91 -35 -133 -113 -21 -38 -40 -55 -98
-88 -40 -22 -79 -47 -88 -54 -9 -8 -48 -67 -87 -133 -39 -65 -87 -133 -106
-150 -108 -96 -141 -131 -205 -222 -39 -55 -88 -119 -110 -143 -46 -52 -67
-98 -67 -149 0 -43 38 -131 69 -162 l21 -21 -39 -102 c-33 -89 -37 -105 -25
-119 36 -41 0 -261 -62 -385 -27 -53 -38 -89 -41 -138 -5 -63 -8 -67 -48 -101
-53 -43 -105 -120 -105 -155 0 -15 9 -53 20 -85 11 -32 20 -74 20 -94 0 -20
-9 -68 -20 -106 -27 -93 -25 -119 8 -155 28 -32 78 -49 140 -50 l32 0 0 -85
c0 -77 2 -85 19 -85 12 0 21 -9 25 -26 9 -35 67 -120 150 -219 106 -126 118
-151 128 -269 8 -97 10 -103 52 -166 36 -52 65 -79 148 -136 81 -55 105 -77
113 -102 6 -22 15 -32 29 -32 11 0 66 -46 130 -108 213 -207 267 -253 329
-283 73 -34 99 -36 151 -8 21 11 61 23 90 26 28 3 68 14 88 24 24 13 59 19
100 19 35 0 94 7 133 15 38 8 91 15 117 15 55 0 272 -60 344 -95 60 -29 77
-31 103 -9 24 21 142 59 211 68 29 4 83 21 119 38 43 21 88 34 131 37 55 5 67
10 75 29 8 18 18 22 60 22 28 0 59 7 69 15 16 12 59 15 218 15 251 0 277 -8
372 -112 55 -60 68 -82 86 -142 11 -39 25 -82 31 -95 9 -23 10 -23 29 -6 29
27 79 108 100 163 38 100 44 202 25 469 -26 354 -6 503 90 698 95 192 209 310
534 553 252 188 361 288 429 394 41 63 91 183 92 219 0 9 39 99 86 200 146
314 250 594 289 779 9 41 20 127 25 190 5 65 30 223 59 365 65 320 90 480 92
580 3 113 -1 175 -12 175 -13 0 -39 56 -39 85 0 21 -5 25 -27 25 -16 0 -52 12
-82 25 -30 14 -88 30 -130 36 -42 6 -79 13 -83 15 -3 2 -55 11 -115 19 -128
18 -210 51 -215 87 -3 20 -9 23 -48 26 -38 3 -52 10 -92 50 -63 61 -64 90 -5
130 98 68 158 148 127 167 -5 3 -10 15 -10 26 0 12 -7 19 -20 19 -28 0 -46 43
-52 121 -7 91 -21 109 -81 109 -32 0 -64 -8 -95 -25 -44 -24 -56 -25 -204 -25
-134 0 -158 2 -158 15 0 10 -11 15 -35 15 -19 0 -35 -4 -35 -10 0 -15 -55 -40
-87 -40 -15 0 -60 11 -99 24 -66 22 -79 23 -195 15 -69 -4 -136 -10 -150 -14
-14 -4 -82 2 -150 12 -94 14 -183 18 -369 18 -278 -1 -331 -7 -710 -85 -302
-62 -402 -74 -554 -67 -230 11 -373 69 -532 219 -51 48 -100 88 -107 88 -8 0
-21 -8 -30 -18z m2061 -257 c-3 -3 -46 -14 -96 -24 -68 -14 -99 -25 -124 -46
-70 -59 -151 -70 -253 -35 -42 15 -84 20 -154 20 -136 0 -144 14 -19 33 99 16
319 43 403 50 70 6 249 7 243 2z"/>
<path d="M16003 15374 c-109 -54 -95 -219 25 -295 93 -59 244 -80 293 -40 l23
18 -27 46 c-15 26 -37 77 -48 114 -41 132 -167 206 -266 157z"/>
<path d="M3425 15221 c-22 -10 -55 -35 -73 -55 l-33 -38 41 -35 c47 -41 82
-105 99 -183 7 -30 14 -61 16 -67 3 -9 19 -4 52 17 26 17 52 30 58 30 7 0 31
14 54 31 110 79 103 243 -13 298 -54 27 -145 28 -201 2z"/>
<path d="M16510 15051 c-66 -21 -114 -60 -154 -124 -48 -78 -62 -188 -30 -248
l17 -33 22 26 c15 18 27 51 35 100 14 85 29 118 67 148 26 20 35 22 116 15
l87 -7 0 31 c0 66 -87 116 -160 92z"/>
<path d="M3166 15035 c-22 -22 -3 -57 44 -84 68 -38 98 -87 115 -183 7 -45 20
-55 45 -33 43 39 31 156 -24 228 -32 44 -104 87 -142 87 -13 0 -29 -7 -38 -15z"/>
<path d="M16622 14859 c-101 -51 -173 -246 -126 -345 31 -65 84 -36 144 78 49
93 68 117 106 133 47 19 47 61 2 110 -43 45 -72 51 -126 24z"/>
<path d="M3043 14839 c-63 -18 -138 -103 -288 -329 -138 -207 -180 -289 -141
-274 9 3 16 9 16 13 0 4 15 23 33 43 57 62 149 71 177 18 9 -17 5 -32 -25 -86
-47 -83 -44 -116 5 -54 19 25 102 115 185 200 193 200 209 223 213 309 4 76
-16 118 -70 151 -36 22 -56 23 -105 9z"/>
<path d="M16003 14770 c-55 -33 -64 -55 -54 -142 15 -137 75 -215 173 -225 93
-9 175 81 164 179 -8 77 -63 160 -128 194 -39 20 -117 18 -155 -6z"/>
<path d="M3441 14712 c-5 -9 -62 -260 -126 -557 -65 -297 -119 -542 -121 -544
-2 -2 -31 19 -65 46 -78 65 -181 123 -302 173 -92 37 -251 79 -262 68 -14 -14
13 -42 69 -70 121 -60 231 -142 359 -267 71 -69 138 -141 149 -159 21 -34 21
-36 4 -141 -24 -158 -133 -1108 -150 -1316 -28 -340 -64 -1035 -96 -1850 -5
-143 -15 -339 -20 -435 -6 -96 -15 -285 -20 -420 -35 -855 -117 -1733 -225
-2390 -99 -605 -118 -750 -97 -750 21 0 34 44 82 288 117 592 246 1663 275
2287 3 72 12 222 20 335 20 287 32 511 50 910 9 190 22 455 30 590 8 135 22
377 30 539 13 258 64 924 110 1451 32 363 83 773 100 801 3 4 25 -1 49 -12 24
-10 52 -16 61 -13 28 11 13 86 -36 180 l-43 84 48 257 c49 265 125 623 170
794 14 53 22 106 19 118 -7 26 -48 29 -62 3z"/>
<path d="M1972 14645 c-13 -17 -22 -42 -22 -63 0 -20 -5 -61 -12 -92 -6 -31
-8 -65 -4 -76 7 -17 10 -16 36 13 47 52 66 168 36 222 l-13 23 -21 -27z"/>
<path d="M16805 14601 c-70 -44 -115 -122 -115 -200 0 -43 33 -119 55 -127 25
-10 52 23 65 79 14 58 37 104 57 112 8 2 34 -1 59 -7 45 -12 47 -12 70 15 13
16 24 35 24 43 0 28 -30 74 -60 89 -41 21 -118 19 -155 -4z"/>
<path d="M911 14506 c-55 -179 1 -407 144 -579 101 -122 250 -218 402 -258
109 -29 287 -29 398 0 170 45 279 115 418 268 95 104 120 142 115 175 -2 18
-21 4 -116 -82 -140 -128 -198 -172 -287 -216 -191 -93 -433 -102 -610 -20
-117 54 -240 174 -313 306 -46 83 -79 192 -97 325 -9 66 -20 127 -25 134 -5
10 -15 -6 -29 -53z"/>
<path d="M10495 14531 c-22 -5 -80 -27 -130 -49 l-90 -41 3 -113 c4 -138 -5
-156 -108 -222 -75 -49 -100 -55 -120 -31 -32 39 -158 94 -275 120 -66 14
-154 42 -196 61 -42 19 -78 34 -80 34 -2 0 -3 -38 -1 -85 4 -108 -14 -235 -88
-610 -33 -166 -60 -322 -60 -347 0 -217 -114 -578 -316 -1005 l-62 -132 31
-10 c68 -21 99 -22 169 -7 157 34 396 44 593 26 442 -41 830 -208 1260 -545
120 -94 495 -418 490 -423 -10 -10 -79 42 -231 174 -278 241 -475 388 -654
489 -47 27 -103 60 -125 74 -48 31 -97 55 -108 52 -5 -1 -51 15 -103 34 -136
51 -299 91 -454 110 -108 14 -177 16 -345 11 -115 -3 -232 -11 -260 -16 -102
-21 -181 -23 -229 -7 l-46 16 -10 -42 c-39 -150 -91 -244 -195 -355 -83 -88
-181 -168 -427 -349 -68 -50 -159 -124 -201 -163 -149 -139 -260 -319 -309
-500 -22 -80 -23 -99 -19 -320 9 -499 7 -570 -13 -630 -21 -64 -57 -130 -99
-182 -53 -66 -46 -68 197 -68 181 0 215 2 220 15 4 12 23 15 85 15 l80 0 6
-43 c6 -38 11 -45 53 -67 35 -19 54 -38 74 -75 15 -27 39 -60 54 -72 33 -26
31 -46 -26 -232 -22 -71 -40 -136 -40 -144 0 -8 9 -17 20 -20 27 -7 25 -31 -6
-62 -25 -25 -26 -31 -21 -93 6 -76 -9 -108 -75 -157 -39 -29 -49 -61 -24 -71
8 -3 23 -29 32 -57 9 -29 31 -69 48 -90 76 -92 123 -140 151 -154 63 -33 331
-315 367 -388 9 -16 18 -46 22 -66 6 -32 38 -100 129 -274 44 -83 98 -213 104
-250 5 -30 9 -35 27 -29 48 14 365 148 553 234 111 50 210 90 220 87 11 -2
-19 -21 -82 -52 -169 -80 -518 -231 -627 -271 -57 -21 -111 -44 -120 -52 -22
-18 -23 -51 -3 -58 8 -4 15 -13 15 -22 0 -28 81 -153 106 -164 23 -11 24 -14
24 -130 0 -66 -4 -118 -9 -118 -5 0 -26 -27 -46 -60 -21 -34 -55 -73 -78 -89
-86 -60 -103 -87 -157 -246 -55 -165 -72 -261 -49 -276 11 -7 10 -9 -4 -9 -15
0 -16 -2 -5 -14 7 -8 15 -10 18 -5 3 4 21 7 39 7 23 -1 35 -7 38 -19 3 -10 11
-20 19 -23 10 -4 11 -12 2 -36 -5 -17 -8 -34 -4 -37 3 -4 6 1 6 11 0 13 6 15
25 10 15 -4 25 -2 25 5 0 6 5 11 11 11 14 0 263 -106 329 -141 66 -34 106 -42
102 -18 -3 19 35 29 114 29 43 0 52 -3 48 -15 -4 -10 0 -15 11 -15 9 0 14 4
10 9 -10 17 78 22 195 11 63 -7 138 -13 165 -14 28 -1 69 -3 93 -4 40 -2 43
-4 40 -29 -2 -20 1 -27 11 -25 27 6 59 -8 64 -27 3 -15 0 -17 -16 -13 -11 3
-25 -1 -31 -10 -16 -21 -51 -38 -80 -38 -38 0 -40 -17 -3 -23 19 -2 41 2 54
11 33 21 50 2 52 -58 l1 -50 -38 0 c-25 0 -33 -3 -23 -9 8 -5 20 -7 28 -4 7 3
13 0 13 -6 0 -6 -7 -11 -15 -11 -8 0 -15 -4 -15 -10 0 -5 6 -10 13 -10 16 0
37 -41 37 -70 0 -14 7 -20 23 -20 22 0 312 -123 331 -140 4 -5 -2 -14 -14 -20
-12 -7 -20 -8 -17 -3 9 14 -286 142 -295 129 -4 -6 -5 -29 -2 -51 9 -65 12
-69 31 -49 13 12 14 19 5 22 -14 4 -17 42 -2 42 11 0 24 -65 15 -79 -3 -6 -12
-11 -20 -11 -17 0 -28 -31 -15 -44 5 -5 10 -26 10 -46 l0 -36 -70 0 -70 1 0
-30 c0 -17 -6 -40 -14 -51 -14 -18 -15 -18 -22 0 -4 11 0 30 10 48 20 33 16
44 -11 30 -11 -6 -124 -9 -282 -9 -254 2 -264 1 -271 -18 -7 -19 -7 -19 -14 3
-6 19 -15 22 -64 24 -66 1 -69 2 -102 15 -14 6 -27 7 -30 3 -3 -5 -21 -10 -40
-12 -31 -3 -35 -7 -42 -42 -8 -38 4 -72 22 -61 5 3 21 -6 36 -20 30 -28 47
-26 21 3 -18 20 -23 72 -7 72 6 0 10 11 10 25 0 14 4 25 9 25 13 0 22 -43 10
-51 -6 -3 -9 -17 -7 -30 3 -22 8 -24 88 -31 97 -9 94 -9 215 -4 50 2 95 0 100
-5 6 -4 44 -8 85 -8 41 1 80 0 85 -1 33 -5 162 3 178 12 13 7 22 7 30 -1 6 -6
41 -11 78 -11 l66 0 6 -67 c7 -81 14 -103 32 -97 7 3 15 -4 18 -16 5 -18 2
-21 -14 -17 -21 6 -22 2 -19 -58 2 -47 4 -50 27 -41 17 7 17 8 1 17 -16 9 -26
59 -12 59 34 0 60 -142 34 -190 -10 -18 -14 -20 -21 -9 -12 20 -11 25 8 44 14
14 14 18 2 26 -17 11 -39 12 -39 2 -6 -111 -4 -139 13 -158 17 -19 18 -19 15
14 -2 19 2 35 7 37 23 8 40 -18 46 -68 l6 -53 2 46 c1 42 3 47 28 52 16 3 31
0 35 -6 5 -8 10 -7 20 1 8 6 40 13 71 14 59 2 64 6 47 38 -7 13 -6 21 5 30 16
13 17 12 19 -40 1 -23 3 -24 66 -21 36 1 75 2 88 2 13 -1 32 4 43 9 10 6 19 7
19 2 0 -5 34 -8 75 -8 67 1 75 3 77 21 1 11 2 27 4 35 1 8 2 21 3 28 1 7 5 10
11 7 5 -3 9 -21 7 -38 -2 -31 -1 -32 41 -35 33 -2 42 -7 42 -21 0 -22 30 -23
46 -2 8 11 25 12 69 7 32 -3 62 -2 69 3 11 9 95 14 189 12 37 -1 47 -5 48 -18
0 -13 3 -11 10 6 18 47 31 8 26 -80 -20 -328 -35 -429 -69 -460 -10 -9 -18
-24 -18 -33 0 -10 -5 -26 -11 -37 -5 -11 -8 -28 -6 -37 4 -14 6 -13 12 6 5 16
13 21 26 17 14 -5 18 0 21 27 2 23 9 34 22 36 16 3 18 0 12 -24 -5 -18 -3 -30
6 -35 10 -7 10 -9 1 -9 -8 0 -13 -15 -13 -40 0 -22 2 -40 5 -40 3 0 45 28 93
63 48 34 121 84 163 109 55 34 117 90 225 201 119 123 163 161 213 186 46 24
69 43 89 75 15 24 32 51 37 59 9 13 25 12 135 -8 207 -39 389 -56 600 -56 242
0 353 11 690 66 387 64 422 68 619 62 293 -8 440 -61 630 -227 56 -49 109 -90
117 -90 19 0 54 36 54 55 0 71 -170 212 -348 288 -237 101 -497 111 -1032 39
-463 -63 -510 -67 -830 -67 -279 0 -346 5 -542 36 -63 10 -68 13 -68 36 0 16
-7 27 -20 30 -23 6 -28 43 -5 43 8 0 28 20 44 44 44 64 57 74 104 86 47 13
225 78 217 80 -3 1 -279 18 -614 38 -452 28 -610 40 -614 50 -5 16 -34 17 693
-26 l620 -37 36 36 c43 43 74 120 87 212 8 65 2 107 -18 107 -6 0 -10 35 -10
90 0 73 -3 90 -15 90 -8 0 -21 10 -29 23 -13 19 -13 28 2 79 13 45 22 58 41
63 13 3 57 36 97 73 59 53 158 127 194 144 3 2 32 32 65 68 80 86 269 204 344
214 48 6 60 14 190 131 77 68 141 130 144 137 2 7 -112 132 -253 278 -141 146
-315 327 -386 402 -71 76 -160 163 -199 193 -99 80 -291 206 -487 320 -151 88
-189 115 -158 115 5 0 47 -22 92 -48 46 -27 128 -75 183 -107 281 -164 395
-255 650 -521 491 -513 575 -596 590 -584 32 26 43 140 15 140 -13 0 -13 73 0
86 7 7 7 21 -1 42 -6 18 -9 49 -5 70 3 20 10 71 15 113 5 41 14 93 20 115 6
21 11 58 11 81 0 24 6 48 15 57 20 20 19 46 -2 46 -24 0 -78 39 -96 70 -9 14
-30 64 -46 110 -26 70 -31 98 -31 174 0 54 6 109 16 141 16 49 16 53 -6 103
-15 35 -33 58 -51 68 -16 8 -29 22 -29 32 0 9 18 71 41 137 34 100 57 146 140
276 l99 156 0 66 0 66 38 6 c20 4 49 11 63 16 41 16 112 96 178 202 34 54 86
131 115 172 75 100 280 310 447 457 77 67 136 125 132 129 -15 14 -520 269
-653 330 -377 171 -577 233 -848 264 -171 19 -324 46 -450 78 -71 19 -94 22
-100 12 -17 -28 -124 -107 -134 -97 -6 6 12 26 51 57 34 26 61 51 61 54 0 3
-38 19 -85 35 -55 19 -85 34 -85 44 0 8 6 12 13 9 6 -2 63 -21 126 -41 199
-64 376 -100 649 -131 151 -17 239 -37 403 -94 233 -80 592 -245 917 -419 84
-45 156 -82 161 -82 8 0 75 92 137 190 17 27 45 61 63 75 36 31 60 74 86 155
10 33 41 86 78 134 48 63 63 91 73 140 7 34 22 88 34 121 12 33 37 116 56 185
20 69 56 169 81 223 l46 98 -12 66 c-10 54 -10 68 1 74 9 6 14 45 16 139 l4
130 -26 0 c-20 0 -26 -5 -26 -22 0 -16 -17 -35 -57 -63 -83 -58 -102 -67 -168
-81 -220 -44 -216 -43 -265 -94 -52 -56 -92 -70 -195 -70 -58 0 -72 -3 -82
-19 -18 -28 -142 -91 -180 -91 -26 0 -45 12 -95 59 -85 78 -188 161 -215 172
-32 12 -29 20 22 51 46 28 55 50 32 78 -11 14 -204 178 -309 262 -25 21 -49
49 -52 63 -6 22 -12 25 -54 25 -62 1 -117 27 -172 84 -25 26 -64 56 -88 66
-37 17 -47 28 -74 87 -17 37 -33 86 -36 108 -3 22 -27 82 -55 133 -45 85 -54
95 -101 119 -28 14 -65 36 -83 49 -17 13 -39 24 -48 24 -8 0 -18 8 -21 18 -3
9 -34 80 -69 157 -53 117 -65 152 -69 212 -4 45 -17 99 -36 146 -16 42 -30 80
-30 85 0 5 -17 13 -37 17 -59 11 -111 42 -137 83 -13 20 -31 44 -40 51 -29 24
-57 90 -63 146 -4 37 -11 56 -23 62 -27 13 -106 115 -119 154 -6 19 -47 83
-92 143 -44 60 -106 158 -137 219 -48 93 -65 116 -109 150 -52 39 -92 94 -147
205 -15 28 -35 58 -46 64 -31 19 -26 54 9 66 16 6 34 20 41 31 15 29 36 26 43
-7 6 -30 113 -198 141 -221 9 -8 23 -29 31 -48 10 -24 20 -33 37 -33 13 0 32
-3 43 -6 19 -5 23 4 44 99 14 63 20 114 16 128 -13 42 -146 209 -172 215 -23
6 -157 -3 -200 -13 -14 -3 -23 -13 -23 -23 0 -32 -24 -28 -80 15 -72 55 -92
65 -130 65 -38 0 -140 -42 -199 -83 -36 -25 -57 -31 -115 -35 -89 -5 -197 11
-301 45 -74 25 -92 27 -229 25 -155 -2 -176 3 -176 39 0 13 -7 19 -22 19 -21
0 -82 12 -207 41 -28 6 -60 24 -86 48 -23 21 -51 43 -61 49 -28 15 -103 21
-149 13z m1099 -3450 c-3 -3 -15 6 -27 18 l-22 24 27 -19 c14 -10 24 -21 22
-23z m117 -106 c43 -23 249 -192 242 -199 -12 -12 -23 -5 -134 87 -61 50 -121
100 -133 109 -26 22 -15 23 25 3z m266 -227 c-3 -8 -6 -5 -6 6 -1 11 2 17 5
13 3 -3 4 -12 1 -19z m271 -169 c57 -37 127 -80 157 -96 51 -26 69 -43 46 -43
-22 0 -68 24 -168 86 -104 66 -122 80 -153 119 -18 23 -23 26 118 -66z m403
-220 c99 -44 117 -55 106 -65 -8 -8 -227 86 -227 98 0 15 28 8 121 -33z m179
-317 c0 -16 -49 -54 -60 -47 -8 5 -5 15 11 31 22 23 49 32 49 16z m-126 -133
c-65 -64 -91 -61 -34 4 25 29 50 47 63 47 18 0 14 -8 -29 -51z m-98 -96 c-10
-10 -19 5 -10 18 6 11 8 11 12 0 2 -7 1 -15 -2 -18z m-46 -48 c0 -6 -40 -55
-88 -110 -49 -55 -156 -181 -238 -280 -83 -99 -261 -313 -397 -475 -282 -338
-292 -350 -307 -350 -19 0 -10 15 61 95 39 44 153 179 252 299 655 791 723
869 717 821z m-1070 -1263 c0 -12 -140 -146 -188 -180 -38 -27 -41 -32 -25
-41 16 -9 14 -10 -10 -11 -36 0 -70 -18 -61 -31 7 -13 -44 -69 -63 -69 -21 0
-15 14 21 49 19 19 40 45 46 60 6 15 30 36 54 49 24 13 81 59 127 102 81 76
99 89 99 72z m-38 -325 c40 -24 123 -70 183 -102 113 -60 145 -81 145 -97 0
-10 -162 74 -330 170 -111 63 -122 72 -93 72 12 0 54 -19 95 -43z m-362 -56
c0 -32 -590 -385 -605 -361 -3 5 6 17 22 26 211 117 337 192 437 260 117 79
146 94 146 75z m977 -290 c-28 -4 -204 88 -210 111 -3 12 29 -1 113 -45 86
-45 112 -63 97 -66z m-1632 -101 c8 -12 -60 -43 -83 -38 -12 3 -4 11 23 26 46
25 52 26 60 12z m1965 -60 c2 0 -1 -5 -7 -11 -8 -8 -22 -5 -52 10 -22 12 -41
23 -41 26 0 2 21 -2 48 -10 26 -8 49 -15 52 -15z m-2120 -25 c0 -12 -285 -145
-288 -135 -5 15 -14 9 123 78 105 53 165 74 165 57z m-1207 -1739 c3 -8 3 -17
0 -20 -13 -12 -31 -5 -36 14 -4 15 0 20 13 20 10 0 20 -6 23 -14z m1187 -347
c0 -5 -7 -9 -15 -9 -15 0 -20 12 -9 23 8 8 24 -1 24 -14z m40 -24 c8 -10 10
-19 4 -25 -5 -5 -14 1 -21 16 -12 27 -2 32 17 9z m4 -70 c-4 -8 -8 -15 -10
-15 -2 0 -4 7 -4 15 0 8 4 15 10 15 5 0 7 -7 4 -15z m-14 -125 c0 -11 -4 -20
-10 -20 -5 0 -10 9 -10 20 0 11 5 20 10 20 6 0 10 -9 10 -20z m979 -126 c3 -4
0 -9 -6 -11 -7 -3 -13 -9 -13 -14 0 -12 87 -12 95 1 3 6 17 10 31 10 23 0 26
-3 28 -32 1 -16 35 -37 59 -38 28 0 9 -20 -19 -20 -13 0 -24 -5 -24 -11 0 -8
-16 -10 -50 -6 -48 6 -73 -4 -48 -19 23 -14 108 -21 108 -9 0 6 16 18 36 27
l36 16 -6 -36 c-5 -27 -4 -33 3 -22 8 12 11 8 11 -16 0 -27 -6 -34 -37 -50
-21 -9 -33 -19 -26 -21 9 -3 11 -18 6 -48 -5 -41 -4 -43 16 -38 15 4 21 1 21
-11 0 -9 -8 -16 -19 -16 -15 0 -20 -11 -27 -62 -4 -35 -9 -81 -10 -103 -2 -22
-6 -52 -10 -67 -5 -22 -3 -28 10 -28 21 0 30 40 23 105 -3 29 -2 57 3 61 5 5
10 22 12 38 2 16 9 31 16 34 8 3 12 -12 12 -52 0 -40 5 -60 18 -73 11 -10 19
-35 21 -58 1 -21 6 -44 12 -51 18 -22 -22 -29 -241 -40 -52 -3 -105 -5 -117
-4 -13 0 -35 0 -50 0 -16 0 -56 -2 -90 -5 -65 -5 -79 5 -51 33 9 9 9 12 1 12
-7 0 -14 21 -16 48 -3 36 -4 30 -5 -25 l-2 -73 -32 -1 c-18 0 -78 -2 -133 -4
-55 -3 -121 -2 -147 1 -41 5 -48 9 -48 28 0 12 -11 33 -25 46 -20 19 -25 20
-25 7 0 -9 10 -23 22 -31 21 -15 21 -17 6 -32 -12 -13 -35 -17 -88 -17 -39 0
-73 2 -75 4 -2 3 3 26 12 53 13 38 20 47 34 43 14 -4 21 2 25 20 5 20 11 23
30 19 13 -4 24 -3 24 1 0 5 10 14 21 22 18 11 23 11 30 -1 5 -8 9 7 9 40 0 40
-4 52 -15 52 -8 0 -15 9 -15 20 0 22 15 27 23 8 3 -7 6 3 6 22 0 22 -2 30 -7
22 -5 -7 -16 -10 -25 -6 -13 5 -17 0 -17 -22 -1 -25 -2 -27 -11 -11 -14 24
-13 110 0 136 6 11 8 27 5 35 -4 11 -1 16 10 16 9 0 16 -5 16 -11 0 -13 25
-39 38 -39 5 0 23 7 38 15 l29 15 -36 0 c-27 0 -46 8 -69 30 -18 17 -30 34
-26 37 3 4 11 2 17 -4 8 -8 17 -5 33 12 20 23 22 24 65 9 36 -13 48 -13 67 -4
13 7 31 9 41 5 10 -4 28 -8 41 -9 13 -1 26 -6 30 -12 13 -19 42 -24 48 -9 4 8
17 15 29 15 13 0 26 6 28 13 4 8 12 4 26 -13 17 -20 21 -22 21 -7 0 13 9 17
40 17 22 0 40 5 40 10 0 6 -22 10 -50 10 -27 0 -50 5 -50 10 0 14 -32 12 -71
-4 -21 -9 -42 -11 -60 -6 -38 11 -118 10 -125 -1 -9 -15 -27 -10 -20 6 3 9 0
15 -8 15 -7 0 -19 7 -26 15 -10 12 -9 16 3 21 9 3 13 12 10 20 -4 10 4 14 31
14 20 0 36 4 36 9 0 5 8 17 17 27 16 16 38 17 252 11 129 -4 237 -10 240 -13z
m-946 -220 c-4 -10 -9 -12 -15 -6 -12 12 -1 35 12 27 5 -3 6 -13 3 -21z m-557
-51 c-6 -14 -9 -15 -16 -4 -11 19 -1 46 13 32 5 -5 7 -18 3 -28z m774 -8 c0
-19 -3 -35 -7 -35 -5 0 -7 15 -6 32 2 39 2 38 8 38 3 0 5 -16 5 -35z m-980
-12 c0 -20 -3 -24 -11 -16 -7 7 -9 19 -6 27 10 24 17 19 17 -11z m765 4 c0
-26 -20 -25 -23 2 -3 16 1 22 10 19 7 -3 13 -12 13 -21z m-5 -79 c0 -19 -2
-20 -10 -8 -13 19 -13 30 0 30 6 0 10 -10 10 -22z m245 -58 c7 -12 -26 -89
-37 -90 -12 0 -10 58 2 81 12 21 25 25 35 9z m-225 -26 c0 -8 -4 -12 -10 -9
-5 3 -10 10 -10 16 0 5 5 9 10 9 6 0 10 -7 10 -16z m270 -19 c0 -14 -4 -25
-10 -25 -5 0 -10 11 -10 25 0 14 5 25 10 25 6 0 10 -11 10 -25z m10 -231 c0
-8 -5 -12 -10 -9 -6 4 -8 11 -5 16 9 14 15 11 15 -7z m520 -6 c0 -16 -3 -19
-11 -11 -6 6 -8 16 -5 22 11 17 16 13 16 -11z m119 -4 c3 -16 1 -17 -13 -5
-19 16 -21 34 -3 29 6 -3 14 -13 16 -24z m-417 -29 c-12 -22 -27 -2 -18 22 5
12 10 13 17 6 7 -7 8 -17 1 -28z m418 -17 c0 -18 -2 -20 -9 -8 -6 8 -7 18 -5
22 9 14 14 9 14 -14z m-120 -3 c0 -8 -7 -15 -15 -15 -16 0 -20 12 -8 23 11 12
23 8 23 -8z m360 -607 c0 -16 -3 -19 -11 -11 -6 6 -8 16 -5 22 11 17 16 13 16
-11z"/>
<path d="M11190 5105 c-7 -8 -21 -15 -31 -15 -10 0 -21 -4 -24 -10 -3 -6 1 -7
9 -4 9 3 24 3 34 -1 15 -6 15 -8 -7 -26 -18 -14 -19 -19 -7 -19 9 0 16 5 16
11 0 5 4 8 10 4 5 -3 7 -12 3 -20 -3 -9 1 -15 8 -16 8 0 -2 -7 -21 -14 -46
-18 -53 -18 -47 0 10 25 -11 26 -37 2 -35 -32 -33 -39 8 -32 51 10 74 0 68
-30 -5 -30 14 -34 23 -5 8 25 20 26 31 3 6 -15 8 -12 13 12 9 42 1 85 -15 85
-8 0 -14 5 -14 10 0 6 4 10 9 10 16 0 23 40 11 55 -16 19 -24 19 -40 0z"/>
<path d="M10960 5030 c0 -5 5 -10 10 -10 6 0 10 5 10 10 0 6 -4 10 -10 10 -5
0 -10 -4 -10 -10z"/>
<path d="M11313 5025 c11 -7 25 -11 33 -8 22 8 6 23 -24 23 -25 -1 -26 -2 -9
-15z"/>
<path d="M10995 5020 c3 -5 8 -10 11 -10 2 0 4 5 4 10 0 6 -5 10 -11 10 -5 0
-7 -4 -4 -10z"/>
<path d="M11278 5013 c7 -3 16 -2 19 1 4 3 -2 6 -13 5 -11 0 -14 -3 -6 -6z"/>
<path d="M10995 4991 c-3 -5 -1 -12 5 -16 5 -3 10 1 10 9 0 18 -6 21 -15 7z"/>
<path d="M11292 4989 c2 -6 7 -10 11 -10 4 1 19 1 34 1 33 0 28 5 -15 13 -22
5 -32 3 -30 -4z"/>
<path d="M10740 4980 c0 -5 5 -10 11 -10 5 0 7 5 4 10 -3 6 -8 10 -11 10 -2 0
-4 -4 -4 -10z"/>
<path d="M10903 4976 c-9 -14 -12 -66 -3 -66 4 0 12 11 18 25 18 39 42 32 42
-12 0 -20 3 -33 8 -29 4 4 7 27 7 50 1 41 0 42 -33 42 -18 0 -36 -4 -39 -10z"/>
<path d="M10570 4930 c0 -33 3 -40 20 -40 11 0 20 6 20 13 0 27 -13 56 -26 61
-11 4 -14 -4 -14 -34z"/>
<path d="M10880 4877 c0 -15 4 -27 9 -27 17 0 19 15 5 35 -13 18 -14 18 -14
-8z"/>
<path d="M11181 4884 c0 -11 3 -14 6 -6 3 7 2 16 -1 19 -3 4 -6 -2 -5 -13z"/>
<path d="M11220 4854 c0 -8 5 -12 10 -9 6 4 8 11 5 16 -9 14 -15 11 -15 -7z"/>
<path d="M10965 4850 c3 -5 8 -10 11 -10 2 0 4 5 4 10 0 6 -5 10 -11 10 -5 0
-7 -4 -4 -10z"/>
<path d="M11157 4833 c-4 -3 -7 -27 -7 -52 0 -58 16 -87 18 -34 1 21 4 50 8
66 5 25 -4 36 -19 20z"/>
<path d="M10870 4796 c0 -9 5 -16 10 -16 6 0 10 4 10 9 0 6 -4 13 -10 16 -5 3
-10 -1 -10 -9z"/>
<path d="M11220 4799 c0 -5 5 -7 10 -4 6 3 10 8 10 11 0 2 -4 4 -10 4 -5 0
-10 -5 -10 -11z"/>
<path d="M10862 4738 c-18 -18 -15 -28 8 -28 13 0 20 7 20 20 0 23 -10 26 -28
8z"/>
<path d="M10847 4675 c-8 -19 13 -31 24 -14 13 20 11 29 -5 29 -8 0 -16 -7
-19 -15z"/>
<path d="M11135 4650 c-3 -5 1 -10 10 -10 9 0 13 5 10 10 -3 6 -8 10 -10 10
-2 0 -7 -4 -10 -10z"/>
<path d="M10540 4630 c0 -11 5 -20 10 -20 6 0 10 9 10 20 0 11 -4 20 -10 20
-5 0 -10 -9 -10 -20z"/>
<path d="M10830 4600 c0 -19 3 -21 12 -12 9 9 9 15 0 24 -9 9 -12 7 -12 -12z"/>
<path d="M11130 4605 c0 -8 7 -15 16 -15 14 0 14 3 4 15 -7 8 -14 15 -16 15
-2 0 -4 -7 -4 -15z"/>
<path d="M11230 4615 c0 -3 7 -14 16 -23 15 -14 16 -14 13 3 -4 17 -29 35 -29
20z"/>
<path d="M15712 14461 c-148 -51 -269 -196 -316 -377 -26 -100 -36 -240 -35
-492 0 -245 -11 -366 -51 -577 -36 -182 -75 -270 -153 -342 -114 -105 -240
-70 -321 89 -22 43 -43 75 -48 72 -17 -11 -8 -99 16 -149 62 -132 220 -186
358 -123 117 54 184 156 237 358 55 210 61 262 71 655 12 480 31 586 121 688
54 62 92 83 194 110 97 24 116 40 97 81 -10 23 -17 26 -64 26 -29 -1 -77 -9
-106 -19z"/>
<path d="M18665 14305 c-93 -20 -221 -74 -304 -128 -146 -96 -230 -211 -254
-351 -21 -122 32 -289 126 -404 54 -65 145 -132 181 -132 33 0 106 38 106 56
0 7 -31 33 -70 59 -81 54 -129 108 -167 191 -23 49 -27 73 -27 139 -1 70 3 87
29 133 44 80 138 163 247 216 113 56 189 76 285 76 138 0 237 -59 295 -178 32
-65 33 -71 34 -196 0 -90 4 -131 12 -134 20 -6 78 18 102 43 51 54 33 233 -37
367 -106 202 -320 295 -558 243z"/>
<path d="M15937 14276 c-47 -47 -121 -168 -151 -247 -45 -120 -59 -226 -53
-399 3 -85 15 -204 26 -265 10 -60 35 -195 55 -300 67 -364 71 -403 70 -725 0
-256 -3 -313 -22 -429 -28 -171 -53 -227 -135 -303 -34 -31 -59 -59 -56 -62 3
-3 21 -1 41 5 47 12 117 83 157 159 73 137 116 413 115 745 0 261 -12 355 -89
705 -71 324 -78 381 -72 552 7 215 42 316 163 466 60 76 66 86 55 108 -16 37
-62 32 -104 -10z"/>
<path d="M17071 14235 c-40 -36 -94 -136 -105 -193 -7 -39 11 -86 217 -562
381 -882 602 -1694 721 -2645 89 -710 101 -1405 35 -2120 -75 -820 -232 -1599
-467 -2312 -31 -95 -53 -175 -49 -180 12 -12 99 16 142 45 22 15 54 49 71 74
35 51 89 184 100 245 l7 38 -24 -22 c-13 -12 -46 -62 -73 -111 -51 -95 -96
-156 -126 -172 -18 -10 -18 -8 -5 32 8 24 85 268 171 543 86 275 160 507 166
515 13 21 1 -154 -18 -263 -17 -94 -12 -117 27 -117 29 0 54 50 100 195 123
388 204 768 264 1240 41 322 44 552 5 360 -18 -89 -56 -187 -116 -305 -55
-108 -89 -159 -98 -150 -3 3 -1 37 4 75 6 39 19 180 30 315 56 670 48 1217
-26 1908 -18 177 -34 333 -33 345 2 35 37 -84 75 -249 69 -309 118 -634 133
-889 15 -245 23 -276 65 -268 22 5 26 12 32 60 9 77 -19 637 -47 913 -59 589
-274 1537 -512 2260 -138 418 -519 1341 -584 1412 -23 26 -38 23 -82 -17z"/>
<path d="M16691 13930 c-26 -45 -68 -509 -91 -985 -18 -357 -24 -1253 -11
-1550 6 -148 16 -416 21 -595 6 -179 19 -498 30 -710 11 -212 24 -518 30 -680
6 -162 15 -380 21 -485 13 -248 28 -1154 29 -1655 0 -331 -12 -675 -23 -686
-1 -2 -23 4 -48 13 -82 30 -98 0 -53 -97 14 -30 36 -69 50 -87 39 -52 44 -74
34 -175 -6 -51 -17 -172 -25 -268 -19 -218 -61 -567 -81 -681 -20 -111 -16
-163 12 -167 11 -2 26 4 33 12 7 8 39 247 78 573 36 307 70 562 74 567 5 5 40
-13 83 -41 83 -56 235 -120 366 -153 98 -25 220 -38 220 -23 0 15 -31 38 -70
53 -58 22 -206 98 -264 135 -77 49 -270 209 -300 248 l-25 33 9 339 c19 730
22 1114 11 1435 -12 324 -57 1259 -86 1780 -19 339 -42 819 -56 1170 -6 157
-9 555 -6 975 3 604 7 750 25 980 28 359 43 661 33 710 -7 40 -7 40 -20 15z"/>
<path d="M2481 13724 c-97 -26 -148 -76 -215 -210 -89 -181 -68 -189 52 -21
70 98 135 167 147 155 5 -4 -416 -1005 -435 -1035 -18 -30 -2 86 32 220 16 66
27 125 24 133 -8 20 -50 17 -70 -5 -22 -25 -139 -294 -200 -463 -101 -279
-216 -698 -286 -1038 -30 -146 -49 -291 -37 -280 3 3 20 46 37 95 47 133 168
344 230 400 23 20 24 16 10 -40 -6 -22 -35 -175 -64 -340 -118 -650 -162
-1194 -154 -1879 3 -203 1 -360 -3 -349 -13 35 -48 275 -64 433 -28 293 -37
501 -30 725 8 244 3 276 -38 268 -16 -3 -28 -14 -31 -29 -14 -56 -26 -239 -38
-577 -12 -380 -5 -644 28 -997 47 -504 152 -1167 259 -1630 85 -369 334 -1198
410 -1368 15 -33 33 -63 41 -66 59 -22 190 146 187 239 -1 40 -14 81 -181 600
-196 610 -329 1247 -391 1875 -39 387 -45 539 -46 1005 0 450 6 596 41 940
103 1037 401 2184 803 3087 34 76 61 144 61 153 0 18 -9 18 -79 -1z"/>
<path d="M904 13316 c-126 -42 -206 -144 -234 -295 -22 -121 8 -204 79 -218
l34 -6 -9 44 c-5 24 -9 78 -9 119 0 65 4 82 31 130 59 105 168 141 317 106
303 -71 398 -302 202 -489 l-57 -54 23 -17 c43 -29 78 -21 129 32 105 109 137
273 79 397 -67 143 -258 253 -454 261 -58 2 -105 -2 -131 -10z"/>
<path d="M19052 13300 c-42 -17 -37 -37 26 -104 76 -81 115 -161 116 -238 1
-71 -20 -103 -95 -139 -98 -49 -92 -51 -129 53 -42 119 -83 192 -140 249 -45
45 -116 79 -166 79 -45 0 -126 -35 -169 -72 -59 -52 -79 -107 -72 -195 8 -116
67 -212 166 -274 l44 -27 -41 -13 c-22 -6 -43 -18 -46 -26 -8 -19 16 -84 35
-96 21 -13 549 163 623 208 62 38 102 87 118 147 28 107 -40 303 -142 406 -53
54 -78 62 -128 42z m-306 -269 c49 -30 82 -82 120 -187 19 -53 33 -98 32 -99
-2 -1 -38 -14 -82 -28 l-78 -26 -47 23 c-190 98 -191 328 -1 335 14 1 39 -8
56 -18z"/>
<path d="M2150 13271 c-31 -45 -72 -139 -68 -158 7 -39 84 79 103 160 9 36 -8
35 -35 -2z"/>
<path d="M648 12710 c-80 -24 -138 -113 -138 -209 1 -31 7 -74 15 -96 8 -22
15 -41 15 -42 0 -1 -12 2 -26 7 -14 6 -29 10 -34 10 -14 0 -33 -71 -23 -81 17
-17 396 -130 454 -136 42 -4 65 -1 93 12 75 36 126 151 126 282 0 66 -3 77
-25 99 -31 31 -72 30 -67 -1 2 -11 4 -56 5 -100 2 -151 -60 -209 -184 -175
l-37 10 21 68 c30 96 30 224 0 272 -37 60 -132 99 -195 80z m107 -133 c38 -32
44 -95 16 -186 -12 -40 -27 -71 -35 -71 -7 0 -34 7 -60 16 -40 14 -51 23 -67
58 -33 72 -19 168 28 195 32 19 90 13 118 -12z"/>
<path d="M19105 12305 c-176 -34 -420 -81 -542 -105 -153 -29 -223 -46 -227
-56 -8 -20 13 -110 27 -122 8 -7 79 3 207 28 107 21 196 37 198 36 1 -2 -12
-31 -30 -64 -52 -101 -49 -208 8 -307 99 -173 376 -213 637 -92 137 64 201
155 201 284 -1 97 -41 181 -121 253 -32 27 -61 50 -65 50 -4 0 -8 4 -8 9 0 5
21 12 48 16 63 9 74 20 66 64 -10 56 -22 71 -52 70 -15 -1 -171 -29 -347 -64z
m201 -159 c110 -75 148 -135 141 -224 -5 -67 -43 -116 -118 -154 -122 -62
-316 -76 -406 -30 -78 40 -115 129 -90 213 16 53 83 158 106 167 16 6 277 59
301 61 8 0 38 -14 66 -33z"/>
<path d="M164 12149 c-15 -25 -22 -79 -10 -87 6 -5 71 -24 144 -43 72 -18 132
-36 132 -39 -1 -3 -18 -17 -40 -32 -79 -55 -110 -172 -70 -266 12 -29 38 -66
57 -82 98 -87 286 -133 406 -99 52 14 112 71 133 124 21 57 15 146 -14 205
-12 24 -20 46 -17 48 2 2 19 -1 36 -7 39 -13 53 -3 64 46 6 31 5 31 -47 46
-72 21 -753 197 -761 197 -3 0 -9 -5 -13 -11z m502 -225 c118 -30 137 -46 168
-137 29 -88 -15 -167 -102 -183 -69 -13 -216 24 -272 69 -92 73 -77 184 34
247 28 17 55 30 59 30 4 0 55 -12 113 -26z"/>
<path d="M216 11398 c-3 -13 -6 -35 -6 -50 0 -25 4 -27 93 -47 358 -81 493
-108 500 -101 12 11 25 76 18 88 -6 10 -542 132 -580 132 -11 0 -21 -9 -25
-22z"/>
<path d="M19195 11353 c-172 -24 -289 -96 -344 -212 -23 -51 -26 -68 -26 -176
0 -114 2 -123 31 -186 42 -88 93 -142 168 -179 81 -40 161 -54 271 -47 242 16
391 138 411 337 18 184 -71 358 -219 425 -79 36 -195 51 -292 38z m267 -186
c88 -51 124 -125 116 -239 -5 -58 -10 -75 -35 -106 -67 -83 -155 -116 -308
-116 -193 1 -285 79 -285 243 0 83 11 115 53 159 65 68 148 93 302 89 100 -2
114 -5 157 -30z"/>
<path d="M942 11245 c-29 -64 -7 -105 56 -105 36 0 51 17 59 63 4 28 1 37 -18
51 -37 25 -84 21 -97 -9z"/>
<path d="M697 11103 c-4 -3 -7 -18 -7 -32 0 -57 -2 -57 -214 -22 -207 35 -248
35 -297 0 -35 -25 -59 -87 -59 -154 0 -59 14 -75 64 -75 25 0 26 3 26 53 0 61
6 72 44 86 29 12 112 2 315 -35 93 -17 93 -17 87 -44 -25 -128 -20 -150 35
-150 31 0 35 7 44 82 10 82 11 82 90 69 80 -14 88 -9 89 50 1 47 7 43 -107 63
l-38 7 7 46 c5 33 3 47 -7 54 -17 10 -63 12 -72 2z"/>
<path d="M1435 10888 c-17 -27 -20 -51 -20 -135 0 -120 14 -151 41 -87 27 65
32 254 6 254 -4 0 -17 -15 -27 -32z"/>
<path d="M189 10720 c-81 -24 -124 -92 -124 -195 0 -58 5 -81 27 -124 l28 -53
-29 7 c-23 5 -32 2 -40 -14 -19 -35 -14 -70 11 -75 77 -16 411 -48 459 -43
113 10 160 74 167 223 5 113 -15 190 -55 205 -34 13 -66 2 -60 -19 48 -160 47
-224 -3 -274 -25 -25 -36 -28 -92 -28 l-64 0 4 118 c4 105 2 124 -17 169 -25
56 -59 86 -117 102 -44 12 -58 13 -95 1z m120 -129 c11 -11 25 -37 30 -59 14
-50 1 -187 -16 -186 -7 1 -33 2 -58 3 -52 1 -86 31 -111 98 -19 50 -13 99 17
137 17 22 29 26 70 26 35 0 54 -5 68 -19z"/>
<path d="M800 10601 c-17 -34 -11 -50 25 -65 60 -25 56 -54 -16 -133 -44 -48
-56 -96 -39 -148 13 -39 39 -60 90 -75 40 -11 60 1 60 36 0 18 -9 27 -35 38
-29 12 -35 20 -35 44 0 16 9 37 20 47 11 10 34 39 50 63 49 75 38 153 -28 186
-52 26 -80 28 -92 7z"/>
<path d="M19135 10326 c-123 -30 -198 -89 -249 -196 -27 -57 -31 -78 -34 -172
-5 -119 14 -230 48 -286 19 -31 24 -33 68 -30 43 3 47 5 45 28 -1 14 -11 56
-22 95 -30 100 -29 223 3 291 37 79 95 115 214 130 l54 7 -3 -281 c-3 -222 0
-283 10 -296 10 -12 32 -16 90 -16 183 0 307 79 356 229 24 72 18 216 -12 283
-26 57 -93 131 -148 164 -97 56 -296 80 -420 50z m350 -170 c100 -46 149 -140
127 -244 -6 -30 -23 -69 -36 -87 -33 -43 -100 -75 -159 -75 l-47 0 0 215 0
215 33 0 c17 0 55 -11 82 -24z"/>
<path d="M195 10087 c-57 -19 -97 -41 -122 -69 -72 -77 -91 -237 -40 -340 51
-105 155 -159 304 -160 152 0 250 58 288 172 24 71 17 198 -13 256 -27 53 -86
104 -148 128 -63 24 -214 31 -269 13z m264 -130 c65 -33 85 -65 89 -145 3 -57
0 -72 -20 -102 -13 -19 -43 -45 -68 -58 -40 -21 -56 -23 -140 -20 -74 3 -105
9 -138 26 -135 71 -113 277 33 318 70 20 187 11 244 -19z"/>
<path d="M18249 9450 c-17 -31 -20 -236 -3 -264 11 -18 13 -17 30 10 15 23 19
45 18 114 -1 47 -8 103 -16 125 l-15 40 -14 -25z"/>
<path d="M18836 9364 c-11 -30 -7 -124 7 -129 6 -2 172 -15 367 -29 195 -14
375 -28 400 -31 25 -2 51 -1 59 4 18 12 28 125 12 135 -9 6 -743 65 -812 66
-15 0 -29 -7 -33 -16z"/>
<path d="M19873 9305 c-25 -17 -38 -89 -24 -128 17 -45 120 -57 153 -17 19 23
25 103 10 127 -20 31 -104 43 -139 18z"/>
<path d="M406 9089 c-271 -21 -363 -32 -374 -43 -12 -12 -13 -33 -2 -151 13
-149 27 -209 66 -278 84 -152 302 -213 518 -147 166 52 255 173 257 349 2 129
-12 271 -28 287 -18 17 0 18 -437 -17z m370 -155 c26 -247 -86 -368 -341 -368
-83 0 -109 4 -153 23 -56 25 -106 75 -128 127 -15 36 -40 222 -30 231 5 5 512
49 603 52 l41 1 8 -66z"/>
<path d="M18800 8934 c-14 -37 -13 -114 3 -119 6 -2 118 -16 247 -30 309 -34
289 -29 349 -86 92 -88 107 -131 74 -222 -20 -56 -16 -61 52 -71 56 -9 71 -1
89 45 35 87 12 170 -69 251 l-47 48 63 -7 c53 -5 64 -4 75 12 16 21 19 101 5
109 -7 5 -791 96 -823 96 -4 0 -13 -12 -18 -26z"/>
<path d="M660 8373 c0 -16 4 -33 8 -39 4 -6 50 -33 102 -60 80 -40 104 -48
153 -48 69 -1 92 18 81 69 -11 52 -21 58 -89 51 -51 -6 -73 -2 -149 24 -50 16
-93 30 -98 30 -4 0 -8 -12 -8 -27z"/>
<path d="M18820 8353 c-61 -32 -100 -81 -124 -157 -30 -91 -14 -218 35 -288
11 -14 19 -28 19 -31 0 -2 -22 -2 -49 1 -42 4 -50 2 -54 -14 -13 -46 -16 -80
-9 -92 12 -17 548 -113 637 -113 114 -1 172 32 222 128 41 76 57 162 51 271
-9 147 -43 200 -124 190 -34 -4 -35 -12 -9 -108 21 -80 17 -197 -10 -254 -26
-55 -66 -76 -145 -76 -98 0 -113 6 -106 44 3 17 11 76 17 132 30 242 -51 377
-233 391 -55 4 -70 1 -118 -24z m190 -151 c39 -29 60 -80 60 -147 0 -55 -22
-201 -32 -210 -7 -8 -160 25 -174 36 -29 24 -74 132 -74 178 0 64 35 131 80
154 41 21 101 16 140 -11z"/>
<path d="M3705 8341 c-145 -66 -240 -284 -312 -716 -14 -87 -18 -164 -18 -370
1 -230 4 -284 30 -470 38 -275 40 -503 7 -638 -34 -137 -83 -226 -179 -327
-46 -48 -83 -94 -83 -102 0 -8 9 -23 20 -33 27 -25 65 -7 129 60 105 111 174
252 207 420 24 126 22 348 -7 630 -33 324 -33 726 -1 932 28 182 82 393 116
461 18 36 46 67 91 103 87 68 86 90 0 50z"/>
<path d="M611 8106 c-10 -12 -6 -23 22 -63 45 -64 61 -107 61 -165 0 -70 -43
-108 -133 -120 -23 -3 -25 2 -43 82 -22 105 -63 187 -107 217 -62 42 -139 42
-202 0 -97 -64 -93 -239 6 -333 l35 -32 -30 -7 c-17 -4 -30 -12 -31 -18 -3
-26 3 -63 11 -71 9 -9 348 45 440 71 109 30 144 77 143 188 -1 126 -66 257
-130 263 -17 2 -35 -3 -42 -12z m-233 -142 c32 -22 51 -65 67 -147 7 -40 12
-73 11 -74 -2 -2 -28 -8 -59 -14 -66 -12 -78 -7 -130 51 -32 35 -37 46 -37 91
0 28 5 59 11 70 20 38 97 51 137 23z"/>
<path d="M538 7461 c-158 -36 -290 -69 -293 -72 -7 -8 12 -86 23 -93 4 -2 93
15 197 39 l190 43 58 -26 c76 -33 97 -61 97 -125 l0 -50 42 6 c53 7 70 29 62
77 -11 59 -32 89 -84 118 -27 15 -50 30 -50 33 0 4 16 10 35 13 19 4 37 11 41
17 9 15 -5 76 -19 81 -6 3 -141 -25 -299 -61z"/>
<path d="M4195 7316 c-64 -20 -99 -42 -147 -91 -55 -56 -87 -113 -138 -248
-73 -196 -104 -352 -140 -707 -22 -223 -23 -232 -47 -335 -32 -143 -108 -261
-194 -306 -21 -10 -79 -25 -130 -34 -51 -8 -97 -19 -102 -24 -7 -7 -7 -22 -1
-43 l10 -33 81 0 c72 1 88 4 155 38 101 50 187 140 239 252 58 125 78 225 99
490 23 292 94 605 175 772 95 193 235 253 352 150 38 -33 78 -108 89 -165 10
-54 34 -21 34 47 0 111 -72 203 -188 237 -55 17 -94 17 -147 0z"/>
<path d="M654 7086 c-211 -48 -305 -178 -260 -356 40 -158 112 -241 168 -197
15 11 13 19 -23 77 -40 65 -69 144 -69 186 0 33 18 75 43 102 24 26 88 62 110
62 10 0 31 -59 68 -192 l54 -193 33 -3 c38 -4 122 32 171 73 91 78 94 245 7
360 -55 72 -185 107 -302 81z m204 -116 c95 -58 104 -192 17 -252 -66 -45 -77
-42 -96 27 -9 33 -28 102 -42 153 l-26 92 57 0 c39 0 67 -6 90 -20z"/>
<path d="M17823 6888 c-12 -13 -29 -40 -38 -61 -20 -48 -35 -127 -24 -127 17
0 51 57 70 121 24 80 22 99 -8 67z"/>
<path d="M1270 6573 c-29 -15 -35 -23 -33 -47 3 -38 29 -76 53 -76 30 0 69 21
76 42 7 23 -26 92 -46 96 -8 1 -31 -6 -50 -15z"/>
<path d="M816 6420 c-148 -49 -273 -93 -279 -99 -13 -13 3 -71 24 -84 11 -7
91 15 297 82 246 80 282 94 282 112 0 28 -28 79 -43 78 -6 -1 -133 -41 -281
-89z"/>
<path d="M18280 6393 c-154 -26 -310 -100 -424 -202 -62 -57 -214 -266 -222
-306 -13 -69 -8 -66 159 118 182 200 350 289 572 304 207 13 376 -56 527 -215
112 -119 166 -228 214 -431 14 -57 28 -111 33 -119 14 -26 36 78 35 168 -4
257 -204 526 -471 635 -113 45 -307 68 -423 48z"/>
<path d="M1104 6230 c-39 -15 -36 -29 16 -80 81 -79 112 -174 74 -228 -14 -20
-113 -78 -118 -70 -1 2 -15 33 -30 70 -61 147 -121 209 -209 215 -40 3 -62 -1
-96 -19 -69 -36 -86 -66 -86 -152 0 -63 4 -79 30 -122 17 -27 51 -63 78 -81
l47 -31 -30 -11 c-17 -5 -30 -17 -30 -25 0 -25 22 -66 35 -66 20 0 376 139
428 167 81 45 108 114 84 215 -17 68 -69 158 -115 199 -35 31 -44 33 -78 19z
m-192 -228 c15 -14 41 -59 59 -100 35 -84 36 -81 -44 -108 -48 -16 -48 -16
-94 12 -58 36 -83 70 -90 120 -6 48 22 89 70 103 41 12 65 5 99 -27z"/>
<path d="M8203 5932 c-13 -2 -23 -10 -23 -17 0 -8 -9 -19 -20 -25 -12 -6 -17
-16 -13 -26 5 -14 7 -14 14 -1 6 9 17 13 29 10 13 -4 22 1 27 13 3 11 11 22
17 26 16 11 -5 25 -31 20z"/>
<path d="M8423 5923 c-7 -2 -13 -11 -13 -19 0 -7 -11 -16 -25 -20 -13 -3 -23
-11 -22 -18 3 -15 -51 -20 -69 -5 -22 18 -17 26 21 33 47 9 44 26 -4 26 -56 0
-69 -7 -81 -46 -11 -32 -23 -39 -58 -35 -7 1 -15 -5 -18 -13 -6 -17 12 -56 27
-56 6 0 6 7 -1 19 -15 28 -13 31 19 31 16 0 31 -6 35 -15 6 -16 56 -21 56 -5
0 5 -8 14 -17 20 -15 9 -14 10 7 4 14 -3 28 -9 33 -13 13 -12 67 0 67 15 0 24
48 16 66 -11 20 -31 29 -31 60 1 21 20 32 24 58 19 28 -5 29 -5 11 6 -11 8
-46 12 -81 11 -71 -3 -92 16 -49 44 14 9 25 20 25 25 0 10 -27 11 -47 2z m-53
-93 c0 -5 -4 -10 -10 -10 -5 0 -10 5 -10 10 0 6 5 10 10 10 6 0 10 -4 10 -10z"/>
<path d="M8535 5920 c-3 -5 1 -10 9 -10 8 0 18 5 21 10 3 6 -1 10 -9 10 -8 0
-18 -4 -21 -10z"/>
<path d="M8633 5923 c4 -3 -1 -12 -11 -19 -16 -12 -15 -13 6 -14 12 0 22 6 22
14 0 8 6 17 13 19 6 3 1 6 -12 6 -13 1 -21 -2 -18 -6z"/>
<path d="M8506 5912 c-4 -7 -3 -19 4 -27 14 -17 40 -20 40 -5 0 6 -6 10 -14
10 -8 0 -16 8 -18 18 -3 13 -5 14 -12 4z"/>
<path d="M8687 5907 c-4 -10 7 -14 41 -14 l47 0 -30 13 c-39 17 -52 17 -58 1z"/>
<path d="M18694 5888 c-102 -107 -247 -427 -290 -640 -23 -115 -15 -280 20
-417 15 -57 25 -105 23 -107 -12 -13 -132 -15 -173 -4 -97 27 -143 114 -179
340 -27 173 -42 203 -66 133 -15 -46 -7 -143 21 -252 11 -46 19 -86 16 -88
-13 -13 -103 12 -175 48 -96 48 -187 132 -226 209 -15 30 -45 101 -65 156 -21
56 -45 114 -54 130 -17 28 -17 27 -12 -61 6 -108 43 -263 90 -381 95 -234 266
-416 490 -519 182 -85 433 -89 609 -11 230 101 417 353 421 566 2 131 -11 130
-50 -5 -41 -141 -84 -222 -162 -307 -62 -67 -163 -138 -196 -138 -33 0 -127
106 -174 198 -96 184 -117 378 -67 612 29 134 81 260 183 442 60 108 67 151
16 96z"/>
<path d="M8880 5897 c0 -10 -7 -28 -15 -41 -15 -23 -11 -61 6 -50 5 2 17 0 28
-6 13 -7 22 -7 26 0 4 6 10 8 15 5 5 -3 11 4 15 15 4 11 15 20 26 20 11 0 17
5 14 10 -4 6 -12 10 -18 9 -19 -3 -69 20 -83 39 -13 16 -13 16 -14 -1z"/>
<path d="M8658 5843 c7 -3 16 -2 19 1 4 3 -2 6 -13 5 -11 0 -14 -3 -6 -6z"/>
<path d="M8727 5833 c3 -7 -8 -13 -29 -16 -23 -3 -17 -4 20 -5 52 -2 92 10 92
27 0 5 -20 8 -44 7 -29 -1 -42 -5 -39 -13z"/>
<path d="M9084 5795 c-4 -15 -2 -36 4 -48 6 -12 15 -58 22 -102 6 -44 13 -92
15 -107 3 -17 0 -28 -7 -28 -11 0 -7 -62 11 -190 l8 -55 2 58 c0 31 6 57 11
57 9 0 15 -41 12 -82 -1 -10 3 -18 8 -18 6 0 10 -6 10 -13 0 -7 14 -26 31 -43
17 -16 38 -46 46 -66 24 -59 39 -48 47 33 3 39 11 80 17 91 6 10 13 56 16 101
5 78 8 118 11 143 1 7 12 14 25 18 23 5 67 66 48 66 -6 0 -11 -4 -11 -10 0 -5
-4 -10 -10 -10 -17 0 -11 35 10 53 11 9 20 20 20 24 0 6 -251 122 -322 148
-13 5 -19 0 -24 -20z"/>
<path d="M13319 5786 c-111 -39 -185 -131 -209 -258 -21 -107 17 -212 111
-313 73 -78 148 -118 334 -178 252 -82 464 -115 880 -137 463 -24 637 -70 759
-200 59 -63 80 -110 101 -225 21 -112 28 -125 65 -125 63 0 81 48 60 161 -36
195 -213 377 -441 453 -121 41 -236 56 -544 71 -318 16 -401 27 -649 80 -271
58 -406 114 -496 205 -158 158 -92 356 145 430 51 16 64 28 45 40 -22 14 -119
11 -161 -4z"/>
<path d="M17200 5750 c-19 -30 -90 -124 -158 -208 -185 -231 -197 -251 -197
-331 0 -80 26 -130 81 -156 70 -33 148 2 223 99 22 28 79 125 128 216 144 272
155 295 151 326 -3 28 -4 27 -41 -29 -52 -78 -130 -110 -179 -73 -24 18 -23
46 8 117 36 86 27 108 -16 39z"/>
<path d="M2434 5775 c-12 -7 -31 -41 -42 -73 -12 -32 -31 -67 -42 -77 -19 -17
-26 -18 -66 -7 -58 16 -61 15 -84 -8 -43 -43 -7 -126 66 -150 144 -48 291 136
226 283 -23 51 -28 54 -58 32z"/>
<path d="M8935 5760 c3 -5 8 -10 11 -10 2 0 4 5 4 10 0 6 -5 10 -11 10 -5 0
-7 -4 -4 -10z"/>
<path d="M8441 5744 c0 -11 3 -14 6 -6 3 7 2 16 -1 19 -3 4 -6 -2 -5 -13z"/>
<path d="M8865 5750 c-3 -5 -1 -10 4 -10 6 0 11 5 11 10 0 6 -2 10 -4 10 -3 0
-8 -4 -11 -10z"/>
<path d="M8471 5734 c0 -11 3 -14 6 -6 3 7 2 16 -1 19 -3 4 -6 -2 -5 -13z"/>
<path d="M8942 5710 c0 -14 2 -19 5 -12 2 6 2 18 0 25 -3 6 -5 1 -5 -13z"/>
<path d="M9030 5718 c0 -8 7 -21 15 -28 19 -16 19 -1 0 24 -12 16 -15 17 -15
4z"/>
<path d="M8140 5700 c0 -5 5 -10 11 -10 5 0 7 5 4 10 -3 6 -8 10 -11 10 -2 0
-4 -4 -4 -10z"/>
<path d="M8440 5676 c0 -9 5 -16 10 -16 6 0 10 4 10 9 0 6 -4 13 -10 16 -5 3
-10 -1 -10 -9z"/>
<path d="M8540 5660 c0 -5 5 -10 10 -10 6 0 10 5 10 10 0 6 -4 10 -10 10 -5 0
-10 -4 -10 -10z"/>
<path d="M8541 5554 c1 -38 3 -61 6 -51 5 20 19 22 26 5 3 -8 6 -6 6 5 1 9 -6
17 -14 17 -12 0 -15 10 -13 40 1 22 -1 43 -5 46 -4 4 -6 -24 -6 -62z"/>
<path d="M9445 5610 c3 -5 10 -10 16 -10 5 0 9 5 9 10 0 6 -7 10 -16 10 -8 0
-12 -4 -9 -10z"/>
<path d="M9500 5604 c0 -8 -7 -17 -16 -21 -12 -4 -11 -8 7 -17 12 -6 23 -21
24 -33 2 -31 15 -41 26 -21 6 11 29 19 66 24 53 6 55 7 32 20 -13 7 -36 13
-51 14 -17 0 -28 5 -28 14 0 8 -13 19 -30 25 -25 8 -30 7 -30 -5z"/>
<path d="M18097 5593 c-46 -52 -62 -174 -31 -235 l17 -32 17 21 c13 16 18 48
23 124 3 56 2 111 -2 121 -7 19 -7 19 -24 1z"/>
<path d="M2966 5577 c-105 -60 -102 -229 7 -322 66 -57 144 -59 206 -7 34 28
34 29 34 113 0 121 -35 193 -110 225 -46 20 -92 17 -137 -9z"/>
<path d="M8571 5584 c0 -11 3 -14 6 -6 3 7 2 16 -1 19 -3 4 -6 -2 -5 -13z"/>
<path d="M8117 5577 c-3 -8 -1 -20 4 -28 6 -10 9 -7 9 14 0 29 -5 35 -13 14z"/>
<path d="M8171 5564 c0 -11 3 -14 6 -6 3 7 2 16 -1 19 -3 4 -6 -2 -5 -13z"/>
<path d="M8203 5535 c0 -22 2 -30 4 -17 2 12 2 30 0 40 -3 9 -5 -1 -4 -23z"/>
<path d="M2594 5528 c-17 -18 -48 -59 -69 -91 -41 -63 -78 -97 -106 -97 -58 0
-30 -118 34 -145 48 -20 93 -5 144 47 104 106 137 306 53 316 -18 2 -34 -7
-56 -30z"/>
<path d="M8840 5545 c0 -8 5 -15 10 -15 6 0 10 7 10 15 0 8 -4 15 -10 15 -5 0
-10 -7 -10 -15z"/>
<path d="M9410 5546 c0 -9 5 -16 10 -16 6 0 10 4 10 9 0 6 -4 13 -10 16 -5 3
-10 -1 -10 -9z"/>
<path d="M9082 5525 c0 -16 2 -22 5 -12 2 9 2 23 0 30 -3 6 -5 -1 -5 -18z"/>
<path d="M9825 5540 c-3 -5 -15 -10 -26 -10 -11 0 -18 -4 -15 -9 7 -11 76 -20
76 -10 0 4 3 14 6 23 4 11 0 16 -14 16 -12 0 -24 -4 -27 -10z"/>
<path d="M9880 5534 c0 -8 5 -12 10 -9 6 3 10 10 10 16 0 5 -4 9 -10 9 -5 0
-10 -7 -10 -16z"/>
<path d="M9965 5530 c-3 -5 1 -10 9 -10 9 0 16 5 16 10 0 6 -4 10 -9 10 -6 0
-13 -4 -16 -10z"/>
<path d="M10018 5533 c7 -3 16 -2 19 1 4 3 -2 6 -13 5 -11 0 -14 -3 -6 -6z"/>
<path d="M8421 5514 c0 -11 3 -14 6 -6 3 7 2 16 -1 19 -3 4 -6 -2 -5 -13z"/>
<path d="M9876 5493 c-11 -11 -6 -23 9 -23 8 0 15 4 15 9 0 13 -16 22 -24 14z"/>
<path d="M9516 5473 c-5 -12 -9 -14 -18 -5 -14 14 -68 16 -68 3 0 -5 9 -7 20
-4 19 5 26 -5 21 -31 -1 -5 4 -13 11 -17 10 -7 10 -12 1 -28 -10 -16 -8 -23 9
-43 11 -12 19 -16 16 -8 -3 8 6 25 20 38 22 21 23 24 8 41 -9 10 -16 22 -16
27 0 5 5 2 10 -6 6 -10 12 -11 19 -5 6 7 3 18 -9 32 -16 20 -19 21 -24 6z"/>
<path d="M8930 5469 c0 -5 5 -7 10 -4 6 3 10 8 10 11 0 2 -4 4 -10 4 -5 0 -10
-5 -10 -11z"/>
<path d="M8091 5444 c0 -11 3 -14 6 -6 3 7 2 16 -1 19 -3 4 -6 -2 -5 -13z"/>
<path d="M9605 5450 c-3 -5 3 -10 15 -10 12 0 18 5 15 10 -3 6 -10 10 -15 10
-5 0 -12 -4 -15 -10z"/>
<path d="M9871 5420 c0 -29 1 -32 10 -17 6 9 14 15 19 12 5 -3 11 -1 15 5 3 5
-3 10 -14 10 -10 0 -22 6 -24 13 -3 6 -6 -4 -6 -23z"/>
<path d="M9950 5435 c0 -17 42 -30 67 -21 14 6 14 8 -3 21 -25 19 -64 19 -64
0z"/>
<path d="M10098 5423 c7 -3 16 -2 19 1 4 3 -2 6 -13 5 -11 0 -14 -3 -6 -6z"/>
<path d="M8122 5408 c2 -6 10 -14 16 -16 7 -2 10 2 6 12 -7 18 -28 22 -22 4z"/>
<path d="M8390 5391 c0 -20 6 -30 20 -34 23 -6 25 2 8 38 -15 33 -28 32 -28
-4z"/>
<path d="M9800 5410 c0 -5 7 -10 16 -10 8 0 12 5 9 10 -3 6 -10 10 -16 10 -5
0 -9 -4 -9 -10z"/>
<path d="M8190 5390 c0 -5 5 -10 10 -10 6 0 10 5 10 10 0 6 -4 10 -10 10 -5 0
-10 -4 -10 -10z"/>
<path d="M8563 5355 c0 -27 2 -38 4 -22 2 15 2 37 0 50 -2 12 -4 0 -4 -28z"/>
<path d="M2802 5357 c-12 -13 -31 -53 -41 -88 -38 -134 -69 -165 -154 -155
-28 3 -69 9 -89 12 l-38 6 0 -37 c0 -27 7 -44 29 -66 25 -25 37 -29 83 -29 68
1 123 26 171 80 76 84 110 212 74 278 l-13 23 -22 -24z"/>
<path d="M9811 5364 c0 -11 3 -14 6 -6 3 7 2 16 -1 19 -3 4 -6 -2 -5 -13z"/>
<path d="M8191 5334 c0 -11 3 -14 6 -6 3 7 2 16 -1 19 -3 4 -6 -2 -5 -13z"/>
<path d="M9525 5340 c3 -5 8 -10 11 -10 2 0 4 5 4 10 0 6 -5 10 -11 10 -5 0
-7 -4 -4 -10z"/>
<path d="M9878 5326 c-3 -17 1 -31 13 -42 17 -16 18 -15 15 22 -4 44 -21 56
-28 20z"/>
<path d="M10190 5340 c0 -5 7 -10 15 -10 8 0 15 5 15 10 0 6 -7 10 -15 10 -8
0 -15 -4 -15 -10z"/>
<path d="M1358 5291 c-220 -26 -403 -52 -409 -58 -9 -9 -7 -21 8 -50 19 -35
23 -38 64 -37 24 0 79 4 121 9 l78 8 73 -154 74 -154 -78 -81 c-44 -45 -79
-87 -79 -93 0 -22 40 -91 53 -91 23 0 607 620 607 644 0 11 -10 39 -23 61 -19
34 -28 40 -57 41 -19 1 -214 -19 -432 -45z m363 -78 c-11 -16 -80 -88 -153
-161 l-133 -132 -63 126 c-35 70 -61 128 -58 131 2 3 98 17 213 33 114 15 209
28 211 29 2 0 -6 -11 -17 -26z"/>
<path d="M9467 5323 c-11 -19 -18 -73 -9 -73 5 0 13 16 17 36 6 35 2 54 -8 37z"/>
<path d="M8192 5260 c0 -14 2 -19 5 -12 2 6 2 18 0 25 -3 6 -5 1 -5 -13z"/>
<path d="M10175 5260 c-3 -5 1 -10 10 -10 9 0 13 5 10 10 -3 6 -8 10 -10 10
-2 0 -7 -4 -10 -10z"/>
<path d="M8370 5250 c0 -5 5 -10 11 -10 5 0 7 5 4 10 -3 6 -8 10 -11 10 -2 0
-4 -4 -4 -10z"/>
<path d="M8570 5240 c0 -5 5 -10 11 -10 5 0 7 5 4 10 -3 6 -8 10 -11 10 -2 0
-4 -4 -4 -10z"/>
<path d="M9422 5230 c7 -10 14 -18 15 -16 6 6 -9 36 -18 36 -5 0 -4 -9 3 -20z"/>
<path d="M9790 5230 c0 -5 5 -10 10 -10 6 0 10 5 10 10 0 6 -4 10 -10 10 -5 0
-10 -4 -10 -10z"/>
<path d="M9080 5220 c-8 -5 -35 -10 -59 -10 -30 0 -48 -6 -57 -17 -13 -17 -15
-17 -24 -2 -8 14 -18 15 -56 8 -33 -6 -51 -5 -61 3 -13 10 -14 7 -12 -17 3
-35 -8 -75 -22 -75 -15 0 -23 30 -10 43 6 6 11 19 11 29 0 14 -5 17 -23 13
-12 -3 -52 -7 -87 -8 l-65 -2 5 -50 5 -50 73 -1 c39 0 72 2 72 6 0 4 21 7 48
6 69 -1 180 12 237 27 50 14 50 15 55 61 6 47 -1 55 -30 36z m-112 -73 c2 -10
-3 -17 -12 -17 -10 0 -16 9 -16 21 0 24 23 21 28 -4z"/>
<path d="M8186 5205 c-4 -12 -14 -15 -33 -11 -16 3 -47 8 -70 11 -41 6 -42 5
-48 -27 -8 -48 -2 -133 10 -130 5 1 10 12 10 25 0 18 5 22 35 22 19 0 41 -4
47 -9 7 -4 19 -6 27 -3 8 3 17 3 20 0 3 -3 40 -5 81 -4 l75 2 0 -38 c0 -25 3
-33 9 -24 5 7 13 11 19 7 6 -4 12 5 14 21 3 27 3 27 96 30 89 3 92 3 92 -18 0
-12 3 -19 6 -16 4 3 7 41 8 83 1 73 -6 100 -18 69 -5 -13 -21 -15 -88 -13 -64
2 -86 0 -95 -12 -11 -13 -12 -13 -13 3 0 14 -10 17 -65 17 -42 0 -74 6 -89 15
-21 14 -24 14 -30 0z m199 -65 c8 -13 -16 -90 -28 -90 -6 0 -7 16 -3 38 3 20
6 43 6 50 0 14 16 16 25 2z m-167 -24 c3 -12 -1 -17 -10 -14 -7 3 -15 13 -16
22 -3 12 1 17 10 14 7 -3 15 -13 16 -22z"/>
<path d="M9538 5203 c7 -3 16 -2 19 1 4 3 -2 6 -13 5 -11 0 -14 -3 -6 -6z"/>
<path d="M10191 5184 c0 -11 3 -14 6 -6 3 7 2 16 -1 19 -3 4 -6 -2 -5 -13z"/>
<path d="M9770 5160 c0 -5 5 -10 11 -10 5 0 7 5 4 10 -3 6 -8 10 -11 10 -2 0
-4 -4 -4 -10z"/>
<path d="M9908 5143 c-10 -2 -18 -12 -18 -20 0 -9 3 -13 7 -10 3 4 12 2 20 -4
10 -9 13 -6 13 15 0 14 -1 25 -2 25 -2 -1 -11 -3 -20 -6z"/>
<path d="M10236 5125 c-8 -22 3 -40 16 -27 7 7 7 16 1 27 -9 16 -10 16 -17 0z"/>
<path d="M16690 5110 c-26 -64 9 -171 76 -229 42 -38 73 -51 117 -51 75 1 78
51 5 91 -86 46 -113 81 -138 177 -13 52 -41 57 -60 12z"/>
<path d="M9145 5117 c-4 -10 -5 -21 -1 -24 10 -10 18 4 13 24 -4 17 -4 17 -12
0z"/>
<path d="M10172 5100 c0 -14 2 -19 5 -12 2 6 2 18 0 25 -3 6 -5 1 -5 -13z"/>
<path d="M9773 5094 c-3 -8 -1 -20 6 -27 8 -8 11 -4 11 16 0 30 -7 35 -17 11z"/>
<path d="M9892 5072 c4 -21 38 -29 38 -9 0 8 -9 17 -21 20 -15 4 -19 1 -17
-11z"/>
<path d="M9131 5064 c0 -11 3 -14 6 -6 3 7 2 16 -1 19 -3 4 -6 -2 -5 -13z"/>
<path d="M8191 5044 c0 -11 3 -14 6 -6 3 7 2 16 -1 19 -3 4 -6 -2 -5 -13z"/>
<path d="M8217 5045 c-4 -8 -2 -17 3 -20 6 -4 10 3 10 14 0 25 -6 27 -13 6z"/>
<path d="M9540 5050 c0 -5 5 -10 11 -10 5 0 7 5 4 10 -3 6 -8 10 -11 10 -2 0
-4 -4 -4 -10z"/>
<path d="M16512 4962 c-100 -69 -132 -113 -132 -187 0 -65 32 -122 85 -152 85
-48 230 -17 290 61 26 34 33 66 15 66 -5 0 -28 17 -51 37 -43 39 -76 96 -103
181 -10 28 -18 52 -19 51 -1 0 -39 -26 -85 -57z"/>
<path d="M2820 4997 c-29 -15 -29 -24 -2 -92 12 -27 26 -76 32 -109 20 -97 99
-166 192 -166 54 0 100 27 121 73 23 48 21 83 -7 142 -28 60 -54 85 -121 119
-87 43 -170 56 -215 33z"/>
<path d="M8215 4980 c3 -5 8 -10 11 -10 2 0 4 5 4 10 0 6 -5 10 -11 10 -5 0
-7 -4 -4 -10z"/>
<path d="M8770 4960 c0 -5 5 -10 10 -10 6 0 10 5 10 10 0 6 -4 10 -10 10 -5 0
-10 -4 -10 -10z"/>
<path d="M8580 4931 c0 -12 5 -21 10 -21 6 0 10 6 10 14 0 8 -4 18 -10 21 -5
3 -10 -3 -10 -14z"/>
<path d="M1710 4699 c-206 -116 -379 -215 -383 -219 -11 -9 29 -90 44 -90 6 0
72 34 145 76 74 42 136 75 139 73 2 -2 -33 -89 -77 -193 l-81 -188 21 -44 c22
-44 41 -55 59 -31 5 6 43 91 83 187 40 96 75 177 77 179 1 2 73 -15 159 -39
174 -48 190 -47 161 14 -9 19 -27 42 -39 50 -13 7 -92 29 -175 47 -84 18 -153
35 -153 38 0 3 98 61 218 128 119 68 223 127 230 132 11 7 10 16 -7 50 -12 22
-27 41 -34 41 -6 0 -181 -95 -387 -211z"/>
<path d="M8590 4785 c0 -60 3 -106 6 -102 7 7 6 198 -1 206 -3 2 -5 -44 -5
-104z"/>
<path d="M8748 4883 c7 -3 16 -2 19 1 4 3 -2 6 -13 5 -11 0 -14 -3 -6 -6z"/>
<path d="M8031 4864 c0 -11 3 -14 6 -6 3 7 2 16 -1 19 -3 4 -6 -2 -5 -13z"/>
<path d="M9928 4849 c-3 -8 -1 -25 5 -39 10 -25 11 -25 14 -3 5 28 -11 62 -19
42z"/>
<path d="M9160 4828 c0 -19 2 -20 10 -8 13 19 13 30 0 30 -5 0 -10 -10 -10
-22z"/>
<path d="M10091 4824 c0 -11 3 -14 6 -6 3 7 2 16 -1 19 -3 4 -6 -2 -5 -13z"/>
<path d="M10122 4820 c0 -14 2 -19 5 -12 2 6 2 18 0 25 -3 6 -5 1 -5 -13z"/>
<path d="M9331 4814 c0 -11 3 -14 6 -6 3 7 2 16 -1 19 -3 4 -6 -2 -5 -13z"/>
<path d="M9560 4821 c0 -5 5 -13 10 -16 6 -3 10 -2 10 4 0 5 -4 13 -10 16 -5
3 -10 2 -10 -4z"/>
<path d="M9282 4760 c0 -19 2 -27 5 -17 2 9 2 25 0 35 -3 9 -5 1 -5 -18z"/>
<path d="M9560 4765 c0 -8 5 -15 10 -15 6 0 10 7 10 15 0 8 -4 15 -10 15 -5 0
-10 -7 -10 -15z"/>
<path d="M9700 4764 c0 -8 5 -12 10 -9 6 4 8 11 5 16 -9 14 -15 11 -15 -7z"/>
<path d="M9311 4754 c0 -11 3 -14 6 -6 3 7 2 16 -1 19 -3 4 -6 -2 -5 -13z"/>
<path d="M9927 4753 c-12 -11 -8 -23 8 -23 8 0 15 7 15 15 0 16 -12 20 -23 8z"/>
<path d="M8300 4741 c0 -5 5 -13 10 -16 6 -3 10 -2 10 4 0 5 -4 13 -10 16 -5
3 -10 2 -10 -4z"/>
<path d="M10070 4735 c0 -8 9 -10 25 -7 14 2 25 6 25 7 0 1 -11 5 -25 7 -16 3
-25 1 -25 -7z"/>
<path d="M8960 4696 c0 -20 2 -36 4 -36 8 0 12 61 4 66 -4 3 -8 -11 -8 -30z"/>
<path d="M9301 4704 c0 -11 3 -14 6 -6 3 7 2 16 -1 19 -3 4 -6 -2 -5 -13z"/>
<path d="M9700 4700 c0 -5 5 -10 10 -10 6 0 10 5 10 10 0 6 -4 10 -10 10 -5 0
-10 -4 -10 -10z"/>
<path d="M8642 4670 c0 -19 2 -27 5 -17 2 9 2 25 0 35 -3 9 -5 1 -5 -18z"/>
<path d="M8710 4685 c0 -9 6 -12 15 -9 8 4 15 7 15 9 0 2 -7 5 -15 9 -9 3 -15
0 -15 -9z"/>
<path d="M9560 4691 c0 -6 5 -13 10 -16 6 -3 10 1 10 9 0 9 -4 16 -10 16 -5 0
-10 -4 -10 -9z"/>
<path d="M8225 4680 c3 -5 8 -10 11 -10 2 0 4 5 4 10 0 6 -5 10 -11 10 -5 0
-7 -4 -4 -10z"/>
<path d="M8300 4676 c0 -8 7 -16 15 -20 17 -6 18 -4 9 18 -8 20 -24 21 -24 2z"/>
<path d="M9165 4647 c-14 -34 -10 -71 8 -75 14 -3 17 4 17 37 0 40 -16 64 -25
38z"/>
<path d="M10060 4634 c0 -8 5 -12 10 -9 6 4 8 11 5 16 -9 14 -15 11 -15 -7z"/>
<path d="M8002 4615 c0 -16 2 -22 5 -12 2 9 2 23 0 30 -3 6 -5 -1 -5 -18z"/>
<path d="M8690 4613 c0 -21 3 -22 20 -13 11 6 20 16 20 23 0 7 -9 13 -20 13
-14 0 -20 -7 -20 -23z"/>
<path d="M9540 4626 c0 -17 14 -29 23 -20 8 8 -3 34 -14 34 -5 0 -9 -6 -9 -14z"/>
<path d="M8290 4611 c0 -25 6 -27 13 -6 4 8 2 17 -3 20 -6 4 -10 -3 -10 -14z"/>
<path d="M9251 4604 c0 -11 3 -14 6 -6 3 7 2 16 -1 19 -3 4 -6 -2 -5 -13z"/>
<path d="M10221 4604 c0 -11 3 -14 6 -6 3 7 2 16 -1 19 -3 4 -6 -2 -5 -13z"/>
<path d="M9940 4590 c0 -5 7 -10 16 -10 8 0 12 5 9 10 -3 6 -10 10 -16 10 -5
0 -9 -4 -9 -10z"/>
<path d="M10092 4580 c0 -14 2 -19 5 -12 2 6 2 18 0 25 -3 6 -5 1 -5 -13z"/>
<path d="M8290 4570 c0 -5 5 -10 11 -10 5 0 7 5 4 10 -3 6 -8 10 -11 10 -2 0
-4 -4 -4 -10z"/>
<path d="M9230 4555 c0 -14 4 -25 9 -25 4 0 6 11 3 25 -2 14 -6 25 -8 25 -2 0
-4 -11 -4 -25z"/>
<path d="M9262 4560 c0 -14 2 -19 5 -12 2 6 2 18 0 25 -3 6 -5 1 -5 -13z"/>
<path d="M9041 4561 c-7 -5 -12 -13 -10 -18 2 -5 12 -1 22 9 18 19 12 24 -12
9z"/>
<path d="M8641 4543 c0 -12 3 -24 7 -27 12 -7 8 -89 -6 -94 -13 -4 -27 41 -18
57 4 5 2 12 -4 16 -7 4 -9 -28 -8 -92 1 -66 3 -79 5 -40 4 54 5 57 24 46 12
-6 23 -8 26 -5 3 3 7 32 10 65 3 51 2 60 -11 55 -9 -4 -16 2 -19 18 -4 22 -4
22 -6 1z"/>
<path d="M8680 4550 c0 -5 5 -10 10 -10 6 0 10 5 10 10 0 6 -4 10 -10 10 -5 0
-10 -4 -10 -10z"/>
<path d="M9552 4535 c0 -16 2 -22 5 -12 2 9 2 23 0 30 -3 6 -5 -1 -5 -18z"/>
<path d="M9940 4541 c0 -12 5 -21 10 -21 6 0 10 6 10 14 0 8 -4 18 -10 21 -5
3 -10 -3 -10 -14z"/>
<path d="M10041 4534 c0 -11 3 -14 6 -6 3 7 2 16 -1 19 -3 4 -6 -2 -5 -13z"/>
<path d="M8996 4493 c-6 -22 -1 -71 9 -97 5 -11 3 -21 -6 -27 -12 -7 -12 -12
-1 -30 12 -18 11 -20 -5 -17 -10 2 -19 13 -21 25 -3 24 -41 41 -101 45 l-35 3
-3 -54 c-2 -30 -8 -63 -14 -75 -7 -15 -3 -13 16 8 15 16 38 31 51 32 22 2 24
-1 24 -42 0 -24 4 -44 9 -44 5 0 7 9 4 21 -3 11 0 39 8 61 12 36 14 38 26 22
7 -10 13 -39 13 -65 0 -50 -10 -59 -68 -59 -13 0 -21 -4 -18 -8 3 -5 19 -7 36
-4 18 3 38 -1 48 -10 22 -19 62 -21 69 -2 3 9 13 12 29 8 15 -4 24 -2 24 5 0
24 18 9 22 -18 2 -17 1 -28 -4 -25 -4 3 -8 -5 -8 -17 l0 -22 27 24 c16 13 29
27 31 32 9 18 22 5 16 -17 -3 -13 -1 -27 5 -30 7 -5 11 9 11 40 0 46 0 46 -30
41 -34 -7 -38 -1 -12 20 15 12 9 13 -46 7 -61 -6 -62 -6 -60 18 2 17 -1 22
-15 20 -16 -3 -17 3 -12 60 11 117 11 163 -1 176 -10 10 -14 9 -18 -5z m15
-306 c-17 -17 -24 -1 -9 22 11 18 14 19 16 5 2 -9 -1 -21 -7 -27z"/>
<path d="M9210 4491 c0 -5 5 -13 10 -16 6 -3 10 -2 10 4 0 5 -4 13 -10 16 -5
3 -10 2 -10 -4z"/>
<path d="M8257 4483 c-4 -3 -7 -19 -7 -35 0 -31 -16 -38 -23 -10 -4 16 -5 16
-6 -1 0 -10 6 -20 14 -23 8 -4 15 -13 15 -22 0 -24 18 -1 22 28 2 14 7 31 11
38 14 21 -9 43 -26 25z"/>
<path d="M9940 4471 c0 -11 4 -21 9 -21 18 0 21 18 6 30 -13 10 -15 9 -15 -9z"/>
<path d="M8712 4460 c0 -14 2 -19 5 -12 2 6 2 18 0 25 -3 6 -5 1 -5 -13z"/>
<path d="M9177 4458 c-4 -14 -4 -34 -1 -42 3 -9 -2 -28 -11 -42 -9 -15 -13
-29 -8 -33 4 -3 14 -19 21 -35 10 -21 16 -26 24 -18 8 8 8 15 -1 26 -17 20 -9
41 14 41 12 0 21 10 26 28 10 38 1 58 -24 55 -15 -2 -23 4 -27 22 l-6 25 -7
-27z m53 -58 c0 -21 -15 -27 -25 -10 -7 12 2 30 16 30 5 0 9 -9 9 -20z"/>
<path d="M9551 4432 c-1 -37 2 -51 10 -46 6 3 15 0 20 -7 6 -10 9 -5 9 16 0
22 -3 26 -10 15 -8 -13 -10 -13 -14 0 -3 8 -7 29 -9 45 -2 18 -5 8 -6 -23z"/>
<path d="M10023 4405 c0 -27 2 -38 4 -22 2 15 2 37 0 50 -2 12 -4 0 -4 -28z"/>
<path d="M9650 4414 c0 -8 5 -12 10 -9 6 4 8 11 5 16 -9 14 -15 11 -15 -7z"/>
<path d="M2005 4194 c-198 -124 -367 -229 -375 -234 -13 -7 -12 -13 3 -44 18
-39 39 -45 71 -21 30 23 35 18 24 -27 -25 -113 44 -232 156 -268 96 -31 251
21 358 119 74 68 101 125 96 204 -5 90 -46 145 -137 190 l-69 33 149 93 c82
50 149 97 149 103 0 14 -48 78 -58 77 -4 0 -169 -102 -367 -225z m112 -129
c52 -16 104 -62 118 -105 22 -69 -59 -174 -177 -230 -140 -66 -249 -16 -247
114 1 92 14 111 119 176 52 33 104 60 116 60 11 0 43 -7 71 -15z"/>
<path d="M9940 4405 c0 -8 7 -15 16 -15 14 0 14 3 4 15 -7 8 -14 15 -16 15 -2
0 -4 -7 -4 -15z"/>
<path d="M10067 4413 c-4 -3 -7 -11 -7 -17 0 -6 5 -5 12 2 6 6 9 14 7 17 -3 3
-9 2 -12 -2z"/>
<path d="M11396 4405 c-3 -9 1 -18 10 -22 19 -7 26 0 18 21 -8 20 -20 21 -28
1z"/>
<path d="M10992 4399 c2 -6 8 -10 13 -10 5 0 11 4 13 10 2 6 -4 11 -13 11 -9
0 -15 -5 -13 -11z"/>
<path d="M8070 4370 c0 -16 2 -30 4 -30 2 0 6 14 8 30 3 17 1 30 -4 30 -4 0
-8 -13 -8 -30z"/>
<path d="M10600 4376 c0 -9 7 -12 20 -9 11 3 20 9 20 14 0 5 -9 9 -20 9 -11 0
-20 -6 -20 -14z"/>
<path d="M10800 4370 c0 -18 2 -19 20 -8 11 7 20 16 20 20 0 5 -9 8 -20 8 -13
0 -20 -7 -20 -20z"/>
<path d="M11100 4373 c0 -16 4 -21 15 -17 11 4 15 0 15 -16 0 -16 -4 -20 -15
-16 -11 4 -15 -1 -15 -19 0 -27 9 -32 28 -13 16 16 16 92 1 82 -6 -3 -15 0
-20 7 -6 10 -9 8 -9 -8z"/>
<path d="M8225 4360 c-8 -13 5 -80 16 -80 5 0 9 20 9 45 0 42 -11 58 -25 35z"/>
<path d="M8656 4361 c-4 -7 -5 -15 -2 -18 9 -9 19 4 14 18 -4 11 -6 11 -12 0z"/>
<path d="M10292 4340 c0 -19 2 -27 5 -17 2 9 2 25 0 35 -3 9 -5 1 -5 -18z"/>
<path d="M10994 4356 c-4 -10 -2 -22 4 -28 8 -8 13 -7 18 6 4 10 2 22 -4 28
-8 8 -13 7 -18 -6z"/>
<path d="M3475 4344 c-57 -31 -95 -77 -112 -133 -34 -117 17 -265 111 -322 17
-10 33 -19 36 -19 3 0 14 16 25 36 27 51 115 110 207 139 44 14 85 25 93 25
27 0 25 20 -6 67 -17 26 -45 73 -62 103 -19 31 -50 67 -75 84 -37 26 -54 31
-115 33 -52 2 -80 -1 -102 -13z"/>
<path d="M9570 4336 c0 -8 5 -18 10 -21 6 -3 10 3 10 14 0 12 -4 21 -10 21 -5
0 -10 -6 -10 -14z"/>
<path d="M9640 4334 c0 -8 5 -12 10 -9 6 3 10 10 10 16 0 5 -4 9 -10 9 -5 0
-10 -7 -10 -16z"/>
<path d="M9956 4341 c-3 -5 1 -14 9 -21 13 -10 15 -9 15 9 0 21 -14 28 -24 12z"/>
<path d="M10054 4336 c-6 -17 2 -36 17 -36 12 0 12 37 -1 45 -6 3 -13 -1 -16
-9z"/>
<path d="M10244 4314 c5 -38 12 -51 22 -41 9 9 -5 77 -17 77 -5 0 -7 -16 -5
-36z"/>
<path d="M11390 4336 c0 -9 5 -16 10 -16 6 0 10 4 10 9 0 6 -4 13 -10 16 -5 3
-10 -1 -10 -9z"/>
<path d="M10800 4333 c0 -6 -3 -18 -6 -27 -4 -11 -1 -16 10 -16 9 0 16 6 16
13 0 16 -20 46 -20 30z"/>
<path d="M10320 4306 c0 -32 -31 -68 -61 -73 -53 -7 -66 -22 -72 -81 -6 -60 0
-85 15 -58 5 9 13 14 19 11 15 -10 23 26 11 46 -7 10 -12 27 -12 36 1 17 2 17
13 1 12 -15 14 -15 24 0 11 16 12 16 12 0 1 -9 -3 -20 -9 -23 -14 -9 -12 -55
3 -55 6 0 22 16 35 35 12 19 30 35 40 35 10 0 13 -3 6 -8 -6 -4 -13 -33 -16
-65 -3 -32 -9 -62 -14 -67 -14 -14 -284 -20 -284 -6 0 6 -7 2 -15 -8 -19 -25
-2 -38 32 -25 14 5 42 9 63 9 35 0 40 -3 47 -27 9 -37 8 -118 -2 -169 -8 -46
4 -63 29 -39 19 20 31 2 16 -25 -6 -11 -7 -20 -3 -20 4 0 1 -6 -8 -13 -19 -14
-43 -82 -34 -97 3 -5 1 -10 -5 -10 -6 0 -8 -5 -5 -11 10 -15 -12 -63 -36 -77
-16 -10 -98 -13 -337 -14 -175 0 -347 3 -384 7 -57 6 -68 5 -68 -8 0 -28 30
-86 47 -91 27 -8 612 -15 658 -7 30 5 43 13 53 34 11 22 16 25 32 17 10 -6 22
-15 25 -20 11 -18 96 -11 131 11 30 18 47 20 139 17 77 -2 106 0 110 10 2 6
-1 12 -8 12 -20 0 -37 52 -28 85 6 24 13 30 34 30 14 -1 23 3 21 7 -3 4 -24 8
-47 8 -46 0 -73 12 -63 28 3 5 -1 12 -9 16 -8 3 -15 15 -15 26 0 11 -4 20 -8
20 -9 0 -42 64 -42 80 0 19 17 10 30 -15 7 -14 18 -25 23 -25 5 0 15 -7 21
-16 9 -12 12 -4 14 42 1 31 -3 63 -9 70 -6 7 -8 18 -4 24 3 5 2 10 -2 10 -9 0
-33 255 -33 352 0 49 -3 59 -26 77 -34 27 -44 26 -44 -3z m-10 -110 c0 -3 -4
-8 -10 -11 -5 -3 -10 -1 -10 4 0 6 5 11 10 11 6 0 10 -2 10 -4z m-24 -224 c-3
-20 -10 -38 -16 -40 -5 -2 -10 -10 -10 -18 0 -8 -4 -14 -10 -14 -5 0 -10 -7
-10 -15 0 -8 -4 -15 -10 -15 -5 0 -10 -9 -10 -19 0 -10 -7 -22 -16 -25 -9 -3
-12 -2 -8 5 3 6 6 42 5 81 0 39 4 77 9 83 6 7 27 13 47 13 35 0 35 0 29 -36z
m174 -392 c-19 -13 -30 -13 -30 0 0 6 10 10 23 10 18 0 19 -2 7 -10z"/>
<path d="M10602 4318 c5 -15 28 -18 29 -3 0 6 -7 12 -17 13 -10 3 -15 -1 -12
-10z"/>
<path d="M11230 4300 c0 -32 1 -33 17 -17 16 16 16 18 0 34 -16 16 -17 15 -17
-17z"/>
<path d="M8633 4302 c-8 -5 -7 -11 2 -19 10 -10 14 -9 19 2 6 17 -5 26 -21 17z"/>
<path d="M10003 4293 c-12 -34 -25 -44 -39 -32 -21 17 -18 -10 4 -34 12 -15
14 -21 5 -24 -15 -5 -17 -33 -3 -33 6 0 10 -11 10 -25 0 -14 -4 -25 -10 -25
-5 0 -10 -4 -10 -10 0 -5 7 -10 16 -10 9 0 14 -7 12 -17 -2 -11 -11 -17 -21
-15 -9 2 -17 -2 -17 -8 0 -5 5 -10 10 -10 6 0 10 -6 10 -13 0 -13 -58 -17
-268 -21 -45 0 -82 -4 -82 -8 0 -5 52 -8 115 -8 l115 0 0 -27 c-1 -16 -7 -50
-14 -77 -14 -54 -30 -48 -28 10 1 36 -15 55 -29 33 -5 -8 -9 -24 -9 -36 0 -32
-18 -29 -27 5 -7 24 -8 22 -14 -23 -9 -61 -1 -132 15 -138 6 -2 29 -2 52 1
l41 4 13 111 c7 62 17 120 21 129 12 22 47 27 79 11 23 -12 25 -11 28 15 5 35
19 52 46 53 21 0 21 0 -1 9 -13 5 -23 12 -23 15 0 18 23 45 38 46 14 0 14 2 2
6 -35 13 -40 24 -25 53 11 21 11 30 2 39 -9 9 -9 16 1 31 6 11 12 24 12 30 0
17 -20 11 -27 -7z"/>
<path d="M10995 4280 c1 -13 7 -26 13 -28 16 -5 15 10 -1 33 -13 17 -14 16
-12 -5z"/>
<path d="M9651 4264 c0 -11 3 -14 6 -6 3 7 2 16 -1 19 -3 4 -6 -2 -5 -13z"/>
<path d="M8221 4254 c0 -11 3 -14 6 -6 3 7 2 16 -1 19 -3 4 -6 -2 -5 -13z"/>
<path d="M9187 4256 c-3 -8 1 -22 9 -33 13 -17 14 -16 11 9 -4 33 -13 44 -20
24z"/>
<path d="M10610 4255 c0 -8 7 -15 15 -15 8 0 15 7 15 15 0 8 -7 15 -15 15 -8
0 -15 -7 -15 -15z"/>
<path d="M11098 4259 c-25 -14 -26 -144 -2 -153 14 -5 16 -1 11 28 -3 19 -2
36 3 38 11 4 24 98 14 98 -5 0 -17 -5 -26 -11z"/>
<path d="M11235 4252 c-12 -13 -3 -32 15 -32 13 0 20 7 20 18 0 17 -23 26 -35
14z"/>
<path d="M15473 4242 c-103 -37 -162 -108 -163 -199 0 -53 14 -90 48 -127 90
-96 246 -83 358 29 85 85 96 182 30 268 l-32 42 -94 2 c-71 2 -108 -2 -147
-15z"/>
<path d="M8630 4235 c-7 -9 -11 -18 -8 -20 3 -3 11 1 18 10 7 9 11 18 8 20 -3
3 -11 -1 -18 -10z"/>
<path d="M8670 4235 c0 -8 5 -15 10 -15 6 0 10 7 10 15 0 8 -4 15 -10 15 -5 0
-10 -7 -10 -15z"/>
<path d="M16266 4235 c-56 -20 -106 -64 -144 -126 -64 -106 -89 -239 -58 -314
18 -43 33 -44 100 -6 28 16 78 34 111 41 79 16 123 40 169 90 49 54 66 97 66
162 0 124 -118 198 -244 153z"/>
<path d="M9600 4230 c0 -5 -6 -10 -14 -10 -18 0 -23 -18 -16 -55 7 -38 30 -39
51 -1 18 33 14 76 -7 76 -8 0 -14 -4 -14 -10z m0 -59 c0 -6 -4 -13 -10 -16 -5
-3 -10 1 -10 9 0 9 5 16 10 16 6 0 10 -4 10 -9z"/>
<path d="M9728 4233 c-2 -5 -3 -30 -3 -58 1 -49 1 -50 34 -53 20 -2 37 2 42 9
11 18 59 -29 59 -58 0 -50 16 -18 28 55 19 121 25 112 -72 112 -47 0 -86 -3
-88 -7z m99 -50 c-3 -10 -5 -4 -5 12 0 17 2 24 5 18 2 -7 2 -21 0 -30z"/>
<path d="M11397 4225 c-4 -8 -2 -17 3 -20 6 -4 10 3 10 14 0 25 -6 27 -13 6z"/>
<path d="M9237 4223 c-4 -3 -7 -26 -7 -50 0 -23 -4 -43 -9 -43 -5 0 -11 -8
-14 -19 -6 -25 28 -17 48 12 13 18 15 19 21 4 3 -9 10 -15 15 -12 4 3 6 12 2
20 -3 8 0 15 6 15 6 0 11 -6 11 -12 1 -7 7 1 14 17 l13 30 7 -33 c4 -18 12
-29 17 -26 6 3 13 -3 16 -15 10 -37 23 -22 23 27 0 26 3 57 6 70 6 22 5 22
-78 22 -47 0 -88 -3 -91 -7z"/>
<path d="M10781 4216 c-8 -10 -9 -16 -1 -21 5 -3 13 1 16 10 9 22 -1 29 -15
11z"/>
<path d="M8244 4197 c-6 -7 -14 -19 -17 -27 -3 -10 -6 -7 -6 8 -1 25 -21 31
-21 6 0 -13 -12 -15 -92 -9 -69 6 -90 4 -82 -4 6 -6 31 -13 56 -15 25 -2 50
-5 54 -8 5 -2 25 -3 44 -3 19 1 38 -3 41 -8 4 -5 19 -2 35 6 25 13 27 16 11
22 -12 5 -16 14 -12 26 7 22 4 23 -11 6z"/>
<path d="M10610 4194 c0 -8 5 -12 10 -9 6 4 8 11 5 16 -9 14 -15 11 -15 -7z"/>
<path d="M11000 4163 c0 -32 3 -43 9 -34 5 8 7 19 5 26 -3 6 2 18 11 25 13 11
13 15 3 21 -24 15 -28 9 -28 -38z"/>
<path d="M8657 4193 c-4 -3 -7 -17 -7 -29 0 -13 -8 -28 -17 -33 -16 -9 -16
-10 -2 -11 9 0 19 7 22 14 9 22 85 40 103 25 11 -9 18 -9 26 -1 7 7 20 12 30
12 10 0 18 4 18 9 0 6 -28 7 -69 4 -46 -4 -70 -2 -75 6 -8 12 -19 14 -29 4z"/>
<path d="M8350 4171 c-42 -4 -60 -9 -52 -15 17 -11 222 3 222 15 0 9 -62 9
-170 0z"/>
<path d="M8596 4165 c4 -8 10 -15 14 -15 4 0 13 7 20 15 11 13 8 15 -13 15
-19 0 -25 -4 -21 -15z"/>
<path d="M10760 4149 c0 -24 23 -21 28 4 2 10 -3 17 -12 17 -10 0 -16 -9 -16
-21z"/>
<path d="M11257 4133 c-11 -11 -8 -101 4 -109 8 -4 9 3 4 24 -3 17 -2 39 4 49
10 19 0 49 -12 36z"/>
<path d="M4003 4113 c-19 -7 -16 -47 5 -66 12 -11 222 -51 700 -133 375 -65
682 -121 682 -125 0 -4 -25 -40 -56 -81 -126 -165 -264 -515 -264 -670 0 -46
1 -47 23 -37 13 7 35 40 57 87 44 97 141 259 202 338 75 97 285 310 324 329
31 14 44 15 97 6 78 -15 1319 -107 1612 -120 121 -6 348 -13 505 -17 235 -5
283 -4 273 7 -14 14 -18 49 -5 49 4 0 124 1 267 3 188 2 288 7 360 19 106 18
170 19 170 3 0 -5 -10 -11 -22 -13 -26 -4 -29 -12 -11 -30 9 -9 7 -13 -5 -18
-9 -3 -14 -10 -11 -15 6 -11 384 -12 384 -1 0 4 -5 23 -10 43 l-10 36 -83 6
c-45 4 -112 7 -149 7 -38 0 -68 4 -68 8 0 5 6 22 14 38 7 16 17 42 20 58 6 25
5 28 -11 21 -82 -35 -342 -57 -624 -53 l-257 3 5 -32 c5 -31 4 -33 -23 -33
-52 0 -1082 39 -1319 50 -473 22 -906 55 -993 77 -17 4 -21 10 -17 22 35 84
39 102 28 119 -22 35 -129 5 -244 -68 -25 -17 -59 -32 -75 -36 -57 -11 -1118
156 -1313 207 -72 18 -132 23 -158 12z"/>
<path d="M9600 4101 c0 -13 -7 -21 -16 -21 -12 0 -14 -7 -9 -30 6 -29 5 -30
-32 -31 -21 -1 -42 -1 -46 0 -5 1 -33 3 -63 6 -50 3 -53 2 -44 -15 6 -10 11
-45 11 -77 1 -61 4 -58 14 20 l6 47 68 0 c49 0 72 -4 81 -15 20 -24 30 -17 28
18 -2 25 1 32 15 31 21 -2 21 3 2 22 -11 11 -12 20 -5 34 7 13 7 21 0 25 -5 3
-10 -3 -10 -14z"/>
<path d="M10746 4103 c-5 -17 -24 -127 -29 -167 -1 -10 4 -21 11 -23 8 -3 13
7 14 29 1 18 2 40 3 49 0 9 6 23 12 30 13 16 16 99 3 99 -5 0 -11 -8 -14 -17z"/>
<path d="M11382 4100 c0 -14 2 -19 5 -12 2 6 2 18 0 25 -3 6 -5 1 -5 -13z"/>
<path d="M10626 4081 c-3 -4 -1 -13 5 -21 5 -9 9 -10 9 -3 0 6 8 13 18 15 14
3 13 5 -5 10 -13 3 -25 3 -27 -1z"/>
<path d="M11002 4070 c0 -14 2 -19 5 -12 2 6 2 18 0 25 -3 6 -5 1 -5 -13z"/>
<path d="M11032 4065 c0 -16 2 -22 5 -12 2 9 2 23 0 30 -3 6 -5 -1 -5 -18z"/>
<path d="M11084 4073 c-3 -10 -10 -28 -15 -41 -5 -13 -9 -36 -9 -51 0 -24 -4
-28 -25 -28 -18 0 -25 5 -25 19 0 12 6 18 18 16 9 -2 17 3 17 11 0 8 -10 15
-22 16 -21 2 -23 -3 -23 -49 0 -33 3 -46 9 -37 16 26 29 2 23 -46 -5 -55 -10
-63 -22 -43 -8 12 -10 10 -10 -7 0 -15 5 -21 14 -17 17 7 29 -23 17 -43 -4 -9
-6 -24 -4 -33 3 -10 0 -21 -6 -24 -7 -5 -11 7 -11 35 0 74 -10 36 -13 -50 -2
-72 0 -84 16 -93 13 -6 28 -6 45 1 15 6 50 12 77 15 28 2 58 7 67 11 9 4 23 3
30 -1 7 -5 20 -9 28 -11 8 -1 16 -7 18 -13 2 -6 12 0 22 12 15 20 26 23 91 23
64 -1 74 -3 73 -18 -2 -15 9 -17 80 -17 234 0 1456 -63 1756 -90 63 -6 300
-33 525 -60 587 -71 698 -81 805 -78 95 3 95 3 69 21 -42 28 -530 103 -989
151 -633 67 -1713 136 -2128 136 -46 0 -71 4 -67 10 3 6 -1 10 -9 10 -9 0 -15
-6 -13 -12 1 -8 -10 -14 -28 -15 -16 -2 -53 -8 -82 -14 -28 -7 -60 -8 -70 -4
-15 6 -11 10 22 25 36 17 37 19 14 19 -36 1 -39 8 -23 46 16 40 18 69 4 60 -5
-3 -10 1 -10 10 0 9 4 14 9 11 11 -7 31 47 31 85 0 36 -16 38 -24 4 -7 -28
-31 -33 -40 -9 -3 9 -6 31 -6 50 0 22 -5 34 -14 34 -20 0 -27 -27 -11 -40 12
-10 11 -16 -7 -41 -12 -16 -28 -29 -35 -29 -7 0 -13 -5 -13 -12 0 -6 -6 -4
-13 7 -10 12 -16 14 -21 7 -4 -7 -20 -12 -36 -12 -29 0 -30 0 -24 -47 5 -34
15 -57 35 -78 l29 -30 0 30 c1 25 3 28 13 15 7 -8 21 -20 32 -26 12 -7 20 -21
19 -35 -1 -13 4 -27 10 -31 18 -12 -3 -22 -47 -24 -23 0 -70 -4 -104 -9 -54
-6 -63 -5 -63 8 0 9 7 17 15 19 13 3 13 6 1 30 -10 19 -11 28 -3 31 7 2 11 22
10 48 0 24 4 50 10 58 9 10 7 16 -6 26 -21 15 -22 26 -3 19 15 -6 29 48 40
154 5 50 -8 73 -20 35z m66 -244 c0 -5 -4 -9 -10 -9 -5 0 -10 7 -10 16 0 8 5
12 10 9 6 -3 10 -10 10 -16z m80 -34 c0 -8 -4 -15 -10 -15 -5 0 -10 7 -10 15
0 8 5 15 10 15 6 0 10 -7 10 -15z m70 -74 c0 -6 -4 -13 -10 -16 -5 -3 -10 1
-10 9 0 9 5 16 10 16 6 0 10 -4 10 -9z m-275 -31 c3 -5 1 -10 -4 -10 -6 0 -11
5 -11 10 0 6 2 10 4 10 3 0 8 -4 11 -10z m0 -39 c3 -5 1 -12 -5 -16 -5 -3 -10
1 -10 9 0 18 6 21 15 7z"/>
<path d="M8762 4055 c0 -16 2 -22 5 -12 2 9 2 23 0 30 -3 6 -5 -1 -5 -18z"/>
<path d="M8172 4045 c0 -16 2 -22 5 -12 2 9 2 23 0 30 -3 6 -5 -1 -5 -18z"/>
<path d="M11350 4045 c0 -27 0 -28 20 -10 11 10 20 23 19 29 0 6 -3 5 -6 -2
-4 -10 -8 -10 -19 -1 -11 9 -14 6 -14 -16z"/>
<path d="M9213 4022 c31 -13 48 -61 48 -141 1 -42 5 -93 11 -113 8 -33 12 -38
39 -38 17 0 32 6 35 15 8 21 32 19 36 -2 2 -10 8 8 12 41 8 62 1 77 -33 70
-28 -7 -61 31 -72 83 -17 80 -17 77 26 84 29 5 18 6 -40 7 -44 0 -72 -3 -62
-6z"/>
<path d="M10631 4014 c0 -11 3 -14 6 -6 3 7 2 16 -1 19 -3 4 -6 -2 -5 -13z"/>
<path d="M11356 4001 c-4 -5 -2 -12 3 -15 5 -4 12 -2 15 3 4 5 2 12 -3 15 -5
4 -12 2 -15 -3z"/>
<path d="M3803 3961 c-94 -32 -162 -100 -185 -184 -11 -41 -10 -52 3 -75 30
-53 72 -35 114 49 41 81 90 112 225 143 43 10 53 21 41 44 -23 43 -111 53
-198 23z"/>
<path d="M10637 3962 c1 -8 3 -18 3 -23 0 -4 7 -6 15 -3 8 4 15 13 15 21 0 9
-6 13 -14 10 -8 -3 -17 -3 -19 1 -2 4 -2 1 0 -6z"/>
<path d="M10647 3903 c-12 -11 -8 -23 8 -23 8 0 15 7 15 15 0 16 -12 20 -23 8z"/>
<path d="M11001 3884 c0 -11 3 -14 6 -6 3 7 2 16 -1 19 -3 4 -6 -2 -5 -13z"/>
<path d="M10697 3873 c-4 -3 -7 -16 -7 -28 0 -12 -9 -31 -20 -43 -11 -12 -20
-24 -20 -27 0 -9 40 -45 50 -45 6 0 10 -7 10 -15 0 -18 -27 -20 -33 -2 -8 22
-17 2 -20 -44 -2 -35 -7 -45 -23 -47 -47 -7 -64 -13 -64 -23 0 -6 9 -8 22 -3
11 3 48 6 80 6 71 0 88 -16 94 -90 7 -86 5 -82 46 -82 20 0 40 5 43 10 4 6 11
7 17 4 16 -10 28 16 28 61 0 37 -2 40 -27 40 -16 1 -31 -4 -35 -9 -8 -12 -73
53 -73 73 0 10 -9 16 -23 17 -32 2 -38 11 -19 32 10 10 17 24 17 30 0 7 5 12
10 12 6 0 10 8 10 18 0 22 76 106 89 98 4 -3 11 -24 15 -46 12 -76 36 -38 36
58 l0 52 -58 0 c-32 0 -63 -5 -69 -11 -8 -8 -13 -8 -17 0 -8 12 -49 15 -59 4z
m13 -203 c0 -5 -7 -10 -15 -10 -8 0 -15 5 -15 10 0 6 7 10 15 10 8 0 15 -4 15
-10z m-20 -30 c0 -5 -5 -10 -11 -10 -5 0 -7 5 -4 10 3 6 8 10 11 10 2 0 4 -4
4 -10z"/>
<path d="M10650 3820 c0 -5 5 -10 10 -10 6 0 10 5 10 10 0 6 -4 10 -10 10 -5
0 -10 -4 -10 -10z"/>
<path d="M15645 3805 c-22 -8 -41 -15 -42 -15 -2 0 -3 -7 -3 -15 0 -24 58 -54
142 -72 94 -20 145 -47 176 -93 25 -37 25 -28 5 -199 l-6 -54 42 6 c56 7 89
31 108 75 18 44 12 113 -16 176 -59 134 -281 238 -406 191z"/>
<path d="M3964 3751 c-94 -43 -123 -139 -71 -236 19 -37 116 -131 177 -173 41
-28 285 -176 450 -273 36 -21 82 -41 104 -45 36 -6 38 -6 27 14 -6 12 -31 33
-55 47 -52 30 -71 57 -87 118 -9 38 -8 51 6 81 25 52 44 53 137 7 78 -39 126
-52 113 -31 -3 6 -39 34 -78 63 -40 30 -124 101 -187 158 -277 252 -332 289
-434 289 -38 0 -77 -8 -102 -19z"/>
<path d="M11165 3690 c-4 -6 9 -10 32 -9 30 0 34 2 18 9 -27 12 -43 12 -50 0z"/>
<path d="M2412 3654 c-31 -21 -28 -30 21 -60 86 -54 147 -131 147 -188 0 -27
-36 -75 -80 -106 l-29 -21 -39 58 c-82 121 -154 173 -237 173 -53 0 -77 -10
-123 -53 -106 -101 -27 -290 143 -342 19 -6 19 -7 -5 -25 -21 -16 -23 -22 -15
-46 21 -58 29 -55 238 85 215 144 247 178 247 257 0 56 -49 151 -106 205 -87
82 -118 94 -162 63z m-113 -280 c35 -31 101 -121 101 -136 0 -3 -22 -20 -50
-38 l-49 -32 -55 16 c-58 17 -110 65 -122 111 -9 34 13 83 45 100 46 25 87 19
130 -21z"/>
<path d="M10888 3623 c6 -2 18 -2 25 0 6 3 1 5 -13 5 -14 0 -19 -2 -12 -5z"/>
<path d="M15441 3611 c-45 -12 -75 -43 -66 -70 10 -34 59 -76 143 -124 82 -47
142 -105 142 -135 0 -65 104 -53 164 18 36 43 35 92 -4 153 -66 105 -263 187
-379 158z"/>
<path d="M8196 3567 c1 -63 3 -72 12 -61 10 10 4 104 -7 104 -3 0 -6 -19 -5
-43z"/>
<path d="M11400 3593 c0 -10 -7 -36 -15 -58 -8 -22 -14 -49 -14 -60 0 -11 7
-3 15 20 22 60 33 115 23 115 -5 0 -9 -8 -9 -17z"/>
<path d="M11150 3469 c0 -8 -3 -24 -6 -36 -5 -17 -2 -23 10 -23 12 0 14 7 9
33 -7 35 -13 48 -13 26z"/>
<path d="M8220 3416 c0 -14 4 -27 8 -30 5 -3 6 8 4 25 -5 35 -12 38 -12 5z"/>
<path d="M15152 3346 l-53 -25 16 -31 c17 -34 51 -54 119 -71 53 -13 106 -52
106 -77 0 -10 -7 -36 -15 -60 -17 -48 -10 -70 27 -96 35 -24 82 -20 119 11
104 88 66 262 -73 338 -76 41 -173 46 -246 11z"/>
<path d="M10564 3344 c-15 -6 -8 -36 18 -91 l21 -43 211 0 c116 0 268 5 338
11 l126 12 16 41 c29 75 40 73 -232 56 -137 -8 -430 0 -474 14 -7 3 -18 2 -24
0z"/>
<path d="M16640 3331 c-136 -42 -295 -197 -367 -359 -36 -80 -35 -123 2 -162
48 -51 74 -40 105 45 40 105 67 153 122 211 83 88 167 114 245 78 19 -9 59
-40 89 -69 l55 -51 -108 -110 c-186 -190 -244 -329 -197 -467 20 -61 84 -131
148 -165 73 -38 168 -37 248 3 125 62 227 192 243 313 12 87 12 87 56 47 21
-19 41 -35 44 -35 15 0 95 85 95 102 0 18 -399 441 -511 542 -78 70 -187 102
-269 77z m415 -483 l68 -71 -6 -71 c-8 -99 -24 -141 -74 -196 -95 -106 -201
-107 -279 -5 -36 48 -38 110 -4 180 22 47 197 235 219 235 5 0 39 -32 76 -72z"/>
<path d="M8245 3300 c-8 -13 -1 -24 14 -19 6 3 7 10 2 18 -6 10 -10 10 -16 1z"/>
<path d="M8280 3212 c0 -5 6 -16 13 -27 10 -12 16 -15 21 -6 4 6 1 18 -8 26
-16 17 -26 19 -26 7z"/>
<path d="M2595 3009 c-132 -93 -241 -175 -243 -183 -4 -18 48 -78 62 -73 6 3
79 52 162 111 l151 106 70 0 c80 0 115 -19 139 -77 16 -38 24 -40 65 -16 38
23 41 34 18 81 -26 51 -55 70 -131 86 l-61 12 36 23 c21 12 37 26 37 30 0 17
-46 71 -60 70 -3 0 -113 -76 -245 -170z"/>
<path d="M8301 3144 c0 -11 3 -14 6 -6 3 7 2 16 -1 19 -3 4 -6 -2 -5 -13z"/>
<path d="M8321 3049 c-1 -31 20 -79 35 -79 6 0 14 14 18 31 9 46 8 47 -18 42
-17 -4 -25 0 -29 14 -3 13 -5 11 -6 -8z"/>
<path d="M14650 3025 c-69 -23 -301 -108 -515 -188 -515 -191 -767 -270 -1275
-397 -419 -105 -709 -163 -1095 -219 -1532 -222 -2969 -163 -4530 184 -296 66
-565 135 -805 206 -237 70 -710 229 -880 296 -149 59 -268 103 -277 103 -9 0
-1 -55 17 -113 39 -125 152 -212 372 -288 127 -44 97 -4 -77 104 -97 60 -205
152 -205 174 0 6 60 -11 133 -38 72 -27 371 -138 662 -247 453 -168 524 -197
490 -200 -49 -4 -169 12 -291 40 -107 24 -144 20 -144 -17 0 -51 31 -69 270
-158 290 -108 467 -162 826 -251 462 -115 1185 -239 1160 -198 -3 5 -24 14
-48 21 -140 43 -182 58 -263 96 -50 23 -123 60 -162 83 -73 43 -177 121 -171
128 3 2 42 -3 89 -11 46 -9 230 -35 409 -60 496 -67 763 -89 1290 -106 374
-12 532 -9 1093 22 203 11 374 18 380 16 16 -5 -148 -43 -318 -72 -378 -66
-748 -103 -1140 -114 -148 -5 -278 -11 -287 -16 -19 -8 -23 -41 -9 -64 6 -9
36 -18 78 -22 101 -12 900 -11 1113 1 789 43 1957 250 2864 506 309 87 1087
353 1421 485 212 84 249 106 253 147 3 27 -4 39 -46 80 -50 49 -171 115 -227
125 -20 3 -72 -9 -155 -38z"/>
<path d="M8363 2923 c-3 -7 2 -34 12 -59 l17 -46 139 4 c157 4 164 7 175 76 6
42 6 43 -17 38 -46 -10 -234 -14 -277 -6 -34 6 -45 4 -49 -7z"/>
<path d="M4080 2919 c-501 -65 -844 -286 -1033 -664 -66 -133 -91 -247 -92
-420 0 -162 19 -245 85 -380 130 -263 429 -477 665 -474 65 0 112 13 85 22 -8
3 -64 22 -125 42 -185 62 -313 144 -410 264 -70 86 -121 192 -106 219 18 33
111 111 177 148 351 196 794 159 1229 -104 44 -27 109 -67 145 -89 68 -42 130
-67 130 -54 0 4 -24 31 -54 59 -165 157 -599 362 -849 402 -104 17 -293 7
-429 -23 -89 -19 -108 -21 -113 -9 -3 7 -5 50 -5 95 0 142 53 218 177 257 67
21 215 46 323 55 41 4 92 11 113 16 33 9 37 12 26 26 -7 8 -25 20 -39 25 -40
16 -186 10 -304 -12 -60 -11 -111 -19 -112 -17 -1 1 2 24 7 51 28 150 177 344
318 415 31 16 123 50 206 76 82 26 160 52 174 59 l24 11 -24 6 c-32 9 -109 8
-189 -2z"/>
<path d="M9520 2885 c0 -25 41 -75 62 -77 77 -5 190 -6 230 -1 39 4 48 9 58
33 22 54 19 55 -173 55 -111 0 -177 -4 -177 -10z"/>
<path d="M10715 2883 c4 -10 10 -28 12 -40 3 -12 10 -26 17 -31 6 -5 86 -12
178 -15 l166 -5 21 48 c12 27 21 50 21 52 0 2 -95 4 -211 6 -199 2 -211 1
-204 -15z"/>
<path d="M4795 2770 c-3 -5 64 -77 148 -162 171 -171 256 -288 307 -420 52
-134 64 -200 64 -353 1 -161 -15 -231 -87 -370 -33 -64 -62 -101 -147 -185
-172 -171 -300 -234 -593 -291 -84 -16 -153 -29 -154 -29 -2 0 -3 -4 -3 -9 0
-4 26 -17 58 -27 77 -26 259 -26 352 0 314 86 572 349 660 671 31 113 38 310
16 428 -34 178 -114 349 -218 462 -60 66 -223 208 -285 249 -44 30 -110 49
-118 36z"/>
<path d="M15794 2582 c-79 -28 -161 -81 -217 -142 -170 -185 -154 -427 46
-675 98 -121 201 -191 319 -215 168 -34 388 94 481 280 21 40 37 85 37 100 0
43 -64 130 -96 130 -6 0 -26 -42 -44 -92 -29 -82 -41 -100 -95 -155 -95 -94
-179 -113 -293 -63 -93 41 -238 214 -278 333 -28 79 -24 164 10 221 53 90 147
139 292 152 84 8 94 16 74 64 -23 54 -64 80 -128 80 -31 -1 -80 -9 -108 -18z"/>
<path d="M5830 2560 c0 -29 148 -104 230 -117 l35 -6 -20 23 c-37 42 -131 88
-212 103 -19 4 -33 2 -33 -3z"/>
<path d="M14672 2304 c-32 -16 -58 -37 -68 -56 -14 -27 -13 -33 10 -83 28 -61
54 -79 101 -71 40 8 111 58 120 85 13 42 -55 151 -95 151 -9 0 -40 -12 -68
-26z"/>
<path d="M4183 2276 c-68 -31 -24 -61 109 -75 146 -16 190 -15 186 6 -2 10
-30 31 -62 48 -70 36 -179 45 -233 21z"/>
<path d="M14889 1968 c-49 -22 -89 -55 -89 -74 0 -24 493 -864 507 -864 40 0
150 76 142 98 -15 37 -495 852 -504 856 -7 2 -32 -5 -56 -16z"/>
<path d="M12340 1949 c-13 -6 -33 -18 -43 -27 -34 -30 -207 -279 -207 -297 0
-16 7 -17 54 -12 30 3 65 11 79 19 36 19 268 289 265 307 -4 19 -108 26 -148
10z"/>
<path d="M6511 1852 c-19 -15 -39 -101 -152 -662 -88 -435 -127 -650 -121
-660 13 -22 80 -41 131 -38 l45 3 120 598 c78 385 123 589 128 575 3 -13 57
-302 118 -643 93 -515 115 -623 131 -637 23 -20 118 -42 142 -32 9 3 181 251
383 550 201 300 368 543 370 541 2 -2 -48 -262 -111 -578 -64 -316 -114 -585
-113 -598 4 -30 51 -49 125 -50 l51 -1 10 48 c6 26 65 320 133 655 l123 607
-21 28 c-35 48 -224 79 -273 45 -34 -24 -15 3 -368 -510 -266 -389 -318 -459
-324 -440 -4 12 -52 261 -108 552 -55 292 -107 544 -115 562 -20 44 -54 64
-149 85 -102 22 -128 22 -155 0z"/>
<path d="M13378 1851 c-197 -63 -256 -203 -189 -451 11 -41 21 -80 21 -86 0
-7 -32 -20 -70 -29 -82 -20 -94 -34 -79 -91 19 -70 29 -75 112 -53 39 10 75
15 78 11 4 -4 56 -189 115 -410 76 -283 114 -407 125 -413 11 -5 39 -3 75 7
62 16 84 29 84 49 0 7 -49 195 -109 417 -60 221 -108 405 -105 407 2 2 52 17
111 33 59 16 111 35 116 41 11 17 1 74 -19 104 -19 29 -27 29 -165 -10 l-87
-25 -23 87 c-56 207 -14 283 159 286 40 1 75 5 79 9 10 10 -15 98 -34 118 -21
24 -118 23 -195 -1z"/>
<path d="M8871 1819 c-30 -5 -57 -12 -60 -15 -10 -10 40 -43 82 -55 48 -13
190 -6 252 12 l40 12 -40 18 c-42 18 -151 40 -195 38 -14 -1 -49 -5 -79 -10z"/>
<path d="M14376 1715 c-85 -32 -141 -99 -175 -210 -9 -30 -20 -57 -23 -60 -3
-3 -15 21 -28 54 -30 82 -38 87 -100 65 -98 -35 -106 2 95 -491 97 -241 184
-451 192 -466 12 -24 19 -28 41 -22 50 12 132 54 132 67 0 7 -54 147 -121 310
l-121 297 16 73 c22 100 63 177 105 202 19 11 64 25 100 31 64 11 66 12 64 39
-1 16 -12 49 -25 75 -22 44 -25 46 -68 48 -25 1 -63 -4 -84 -12z"/>
<path d="M8638 1561 c-72 -23 -120 -83 -139 -170 -14 -67 -1 -84 68 -85 l47
-1 13 44 c17 58 39 81 77 81 36 0 60 -14 133 -80 64 -58 113 -82 181 -88 104
-9 186 48 217 150 25 87 18 104 -45 108 -63 5 -67 2 -74 -40 -8 -50 -37 -80
-77 -80 -40 0 -63 13 -128 72 -29 27 -71 58 -92 69 -44 22 -141 33 -181 20z"/>
<path d="M12151 1509 c-25 -5 -51 -14 -58 -21 -6 -7 -87 -319 -178 -693 -91
-374 -168 -687 -171 -696 -9 -33 24 -51 80 -44 78 10 105 23 114 59 5 17 24
100 43 184 29 130 37 153 54 157 24 5 545 65 562 65 7 0 51 -76 98 -169 95
-189 86 -181 193 -169 74 9 82 12 82 40 0 18 -586 1178 -640 1266 -19 30 -23
32 -77 31 -32 -1 -78 -5 -102 -10z m387 -844 c-7 -6 -479 -57 -484 -53 -4 5
101 475 148 667 l11 44 164 -327 c90 -181 163 -329 161 -331z"/>
<path d="M8682 1140 c-87 -12 -162 -35 -202 -62 -39 -26 -56 -80 -40 -124 12
-30 12 -30 140 15 67 24 102 31 166 31 133 0 203 -31 245 -110 13 -24 18 -194
6 -207 -3 -2 -61 0 -129 6 -336 30 -520 -66 -536 -279 -13 -182 109 -303 321
-317 98 -7 185 15 266 67 l58 38 -5 -51 c-6 -64 9 -77 90 -77 52 0 58 2 62 22
15 69 67 711 62 761 -11 110 -62 190 -151 236 -86 44 -239 66 -353 51z m268
-586 l36 -6 -11 -100 c-10 -100 -10 -101 -50 -136 -110 -96 -272 -114 -353
-39 -54 50 -68 131 -34 196 38 76 117 104 272 96 58 -3 121 -8 140 -11z"/>
<path d="M10031 1060 c-65 -14 -163 -63 -209 -104 -99 -90 -152 -221 -159
-395 -13 -296 98 -476 328 -538 167 -44 503 3 530 74 11 31 11 84 0 102 -10
16 -20 14 -145 -23 -69 -20 -110 -26 -185 -26 -122 0 -184 18 -243 70 -57 49
-86 116 -95 214 l-6 75 69 -4 c38 -3 191 -7 340 -10 267 -4 272 -4 299 17 l28
22 -6 105 c-11 217 -90 336 -266 402 -64 24 -210 34 -280 19z m197 -145 c99
-30 159 -114 164 -230 l3 -57 -235 2 c-270 1 -313 5 -306 29 2 9 8 32 11 51
11 55 55 129 97 162 71 56 169 72 266 43z"/>
</g>
</svg>
