<?xml version="1.0" standalone="no"?>
<!DOCTYPE svg PUBLIC "-//W3C//DTD SVG 20010904//EN"
 "http://www.w3.org/TR/2001/REC-SVG-20010904/DTD/svg10.dtd">
<svg version="1.0" xmlns="http://www.w3.org/2000/svg"
 width="461.000000pt" height="542.000000pt" viewBox="0 0 461.000000 542.000000"
 preserveAspectRatio="xMidYMid meet">

<g transform="translate(0.000000,542.000000) scale(0.100000,-0.100000)"
fill="#000000" stroke="none">
<path d="M3899 3092 c-14 -9 -36 -27 -49 -39 -30 -29 -87 -41 -250 -53 -179
-13 -212 -21 -336 -80 -58 -27 -122 -52 -142 -55 -70 -11 -82 -15 -82 -28 0
-11 -107 -67 -129 -67 -5 0 -21 -11 -35 -25 -19 -19 -25 -33 -22 -58 2 -17 -1
-35 -7 -39 -7 -4 -7 -11 2 -22 9 -11 10 -16 2 -16 -19 0 -12 -28 9 -35 30 -9
75 3 151 41 37 19 94 40 127 48 33 7 98 34 144 60 47 25 94 46 105 46 19 0
153 38 203 58 138 54 278 63 385 25 110 -40 133 -52 173 -94 37 -39 40 -41 50
-23 18 34 -38 149 -106 214 -31 31 -76 79 -100 108 -24 29 -48 52 -55 52 -7 0
-24 -8 -38 -18z m-371 -124 c9 -9 15 -9 20 -2 8 12 92 18 122 9 11 -3 20 -13
20 -21 0 -8 -4 -13 -9 -9 -5 3 -12 -3 -16 -14 -7 -23 -36 -32 -60 -18 -13 7
-16 6 -11 -2 7 -12 -2 -13 -86 -16 -38 -1 -49 3 -54 17 -3 10 -10 16 -15 13
-16 -10 -10 22 7 36 12 10 17 10 23 0 6 -10 10 -9 14 3 8 19 28 21 45 4z"/>
<path d="M829 2933 c-13 -17 -13 -17 6 -3 11 8 22 16 24 17 2 2 0 3 -6 3 -6 0
-17 -8 -24 -17z"/>
<path d="M892 2910 c-7 -12 -8 -20 -2 -20 5 0 10 -7 10 -15 0 -8 5 -15 10 -15
6 0 10 -9 10 -20 0 -14 7 -20 21 -20 18 0 20 -4 14 -27 -3 -15 -11 -30 -15
-33 -5 -3 -55 -7 -111 -8 -56 -2 -110 -7 -120 -12 -26 -15 -49 -12 -49 5 0 8
-2 15 -4 15 -12 0 -76 -43 -76 -51 0 -13 209 -1 310 18 97 19 249 21 330 4 30
-6 105 -17 167 -25 61 -8 124 -21 140 -29 15 -8 83 -26 150 -40 77 -16 138
-35 167 -52 25 -15 50 -24 56 -20 5 3 10 -3 10 -14 0 -39 26 -51 112 -51 79 0
80 0 76 -24 -7 -35 36 -32 65 5 12 15 36 31 52 34 l30 7 -30 -20 c-48 -33 -88
-79 -75 -87 6 -4 19 0 29 9 10 9 21 13 24 9 4 -4 24 9 45 29 20 20 47 41 60
47 l22 12 0 -147 c0 -81 3 -145 6 -141 3 3 6 66 5 139 -1 73 2 139 7 145 4 7
22 15 39 19 25 5 32 2 36 -12 4 -17 5 -17 6 -1 1 20 40 23 107 6 34 -9 54 -22
80 -55 33 -40 36 -50 39 -116 3 -73 -10 -119 -41 -143 -7 -6 -14 -37 -16 -72
-4 -75 4 -71 73 35 42 64 47 76 38 101 -6 15 -9 59 -7 97 3 63 5 70 29 81 17
8 30 26 38 55 7 24 17 50 22 58 5 8 11 20 13 25 16 48 27 78 48 130 16 40 22
67 17 80 -8 19 -8 19 -15 -2 -3 -13 -10 -20 -15 -17 -5 3 -9 -1 -9 -8 0 -10
-3 -9 -9 1 -8 12 -11 9 -16 -12 -4 -14 -14 -32 -23 -39 -13 -11 -15 -10 -10 4
4 9 0 24 -7 35 -14 17 -14 17 -15 -4 0 -12 -5 -25 -10 -28 -6 -4 -8 -11 -5
-16 4 -5 -1 -9 -9 -9 -11 0 -16 10 -17 28 l-1 27 -12 -28 c-7 -16 -27 -36 -45
-44 -32 -16 -33 -25 -3 -29 9 -2 18 -7 20 -12 2 -6 13 -8 25 -5 22 5 22 5 2
-11 -19 -15 -19 -16 -1 -9 15 5 17 3 12 -8 -4 -8 -1 -6 8 5 14 18 15 17 22
-10 5 -18 3 -29 -4 -32 -7 -2 -12 -10 -12 -18 0 -24 -17 -16 -41 19 -12 17
-33 44 -47 59 -18 19 -22 30 -15 43 6 9 14 16 19 16 5 -1 10 10 12 24 2 14 -1
25 -7 25 -6 0 -11 -7 -11 -15 0 -21 -16 -19 -40 5 -24 24 -38 27 -19 4 7 -9
14 -23 15 -31 3 -17 4 -19 -35 31 -17 21 -31 33 -31 26 0 -8 10 -25 23 -38 12
-14 16 -22 10 -18 -7 4 -13 2 -13 -4 0 -6 7 -13 15 -16 8 -4 15 -11 15 -16 0
-5 -14 2 -31 17 -18 14 -38 24 -45 21 -7 -3 -15 2 -18 10 -3 8 -17 13 -33 13
l-28 -2 28 -4 c16 -3 26 -10 24 -16 -2 -7 -11 -11 -19 -9 -8 1 -21 -9 -28 -23
-18 -33 -26 -32 -34 6 -4 24 -2 35 11 45 16 12 15 13 -10 14 -16 0 -26 -3 -24
-7 3 -5 -5 -17 -16 -28 l-20 -20 12 22 c6 12 11 26 10 30 -4 22 4 32 33 46 23
11 36 13 45 5 9 -7 18 -7 30 3 11 10 14 10 9 2 -4 -7 -3 -13 3 -13 5 0 13 5
17 11 3 6 17 8 30 5 14 -4 33 -2 44 4 14 7 23 6 34 -6 9 -8 16 -12 16 -7 0 8
47 33 63 33 4 0 5 -5 1 -11 -5 -8 -1 -8 13 0 11 6 23 8 26 4 4 -3 13 -1 20 5
8 7 41 13 75 14 137 6 28 32 -128 31 -52 -1 -124 -8 -159 -16 -54 -12 -75 -12
-140 -1 -92 16 -149 17 -244 4 -141 -20 -138 -20 -124 -34 10 -12 13 -11 19 3
5 13 7 14 7 1 1 -9 10 -16 21 -16 13 0 19 5 15 13 -3 9 4 7 20 -4 13 -10 25
-25 25 -33 0 -10 5 -7 16 8 14 20 42 33 30 14 -2 -4 -1 -14 5 -22 7 -13 9 -12
9 2 0 15 9 17 50 17 28 -1 50 -5 50 -10 0 -4 13 -3 30 2 48 17 59 4 15 -18
-40 -20 -63 -20 -77 1 -5 7 -8 7 -8 -2 0 -7 -4 -11 -9 -7 -12 7 -30 -24 -25
-43 1 -7 0 -8 -3 -2 -3 7 -12 5 -24 -6 -14 -13 -19 -14 -19 -4 0 9 -5 7 -15
-6 -13 -17 -14 -16 -9 21 l6 40 -20 -24 c-13 -16 -21 -20 -26 -12 -4 6 -2 11
3 11 6 0 10 12 10 28 -2 23 -2 24 -6 5 -2 -13 -9 -23 -15 -23 -6 0 -17 -8 -25
-17 -11 -14 -13 -15 -12 -3 3 28 -1 41 -10 35 -5 -3 -11 3 -13 12 -3 10 -10
-14 -17 -52 -17 -97 -19 -99 -88 -99 -44 1 -71 8 -113 31 -49 26 -55 33 -52
57 3 28 2 28 -35 22 -41 -7 -162 -5 -193 3 -3 0 -6 16 -7 35 l-1 33 56 2 c31
1 66 4 77 8 23 7 21 8 -120 46 -90 24 -306 30 -328 8 -8 -8 -8 -11 2 -11 7 0
9 -5 5 -12 -6 -10 -5 -10 8 0 13 10 121 27 153 23 6 -1 33 -3 60 -5 28 -2 54
-5 58 -5 5 -1 5 -5 2 -11 -3 -5 -2 -10 3 -10 5 0 9 -7 9 -15 0 -18 -9 -19 -26
-2 -10 10 -11 9 -6 -5 6 -15 2 -18 -24 -18 -17 0 -31 -3 -31 -7 0 -5 -25 -8
-55 -9 -30 0 -52 3 -49 8 3 4 -26 6 -65 4 -51 -3 -71 0 -75 9 -3 8 -13 11 -24
8 -11 -2 -29 0 -39 6 -13 6 -23 7 -30 0 -6 -6 -10 -4 -10 6 0 8 9 15 21 16 21
0 21 1 1 8 -11 5 -47 14 -79 20 -33 6 -69 20 -80 30 -21 20 -22 20 -34 1z
m1431 -157 c6 -5 -13 -27 -55 -61 -28 -23 -30 5 -2 37 25 30 44 38 57 24z
m-13 -67 c0 -2 -8 -10 -17 -17 -16 -13 -17 -12 -4 4 13 16 21 21 21 13z m140
-26 c0 -5 0 -12 0 -15 0 -3 -2 -5 -5 -5 -3 0 -5 3 -4 6 0 4 -5 11 -13 15 -10
7 -9 9 5 9 9 0 17 -4 17 -10z m155 -20 c10 -11 16 -20 13 -20 -3 0 -13 9 -23
20 -10 11 -16 20 -13 20 3 0 13 -9 23 -20z m-426 -56 c-38 -39 -68 -59 -77
-50 -8 9 49 66 60 60 4 -3 11 2 14 10 3 9 10 13 15 10 5 -3 9 0 9 7 0 7 3 9 7
6 4 -4 -9 -23 -28 -43z m151 21 c0 -3 -15 -14 -32 -25 -37 -23 -35 -25 11 -9
17 6 31 15 31 20 0 5 5 9 10 9 6 0 10 -6 10 -13 0 -7 -39 -25 -87 -41 -121
-39 -124 -39 -73 -14 47 24 62 37 54 49 -2 4 1 11 7 15 8 4 9 3 5 -4 -9 -16
-4 -15 30 3 32 17 34 17 34 10z m190 -11 c-58 -8 -148 -8 -143 -1 2 4 41 6 86
6 45 -1 71 -3 57 -5z m237 -26 c-3 -8 -6 -5 -6 6 -1 11 2 17 5 13 3 -3 4 -12
1 -19z m-177 2 c11 -7 5 -8 -20 -4 -43 8 -51 14 -19 14 13 0 31 -5 39 -10z
m71 -77 c13 -17 13 -17 -6 -3 -11 8 -31 26 -45 39 l-25 24 31 -21 c17 -12 37
-29 45 -39z"/>
<path d="M1108 2873 c12 -2 20 -9 17 -14 -4 -5 6 -9 22 -8 24 0 25 1 8 8 -19
8 -18 9 5 13 14 3 3 5 -25 5 -27 0 -40 -2 -27 -4z"/>
<path d="M876 2845 c-9 -35 -1 -43 14 -15 8 14 8 26 2 32 -6 6 -12 0 -16 -17z"/>
<path d="M1933 2833 c9 -2 23 -2 30 0 6 3 -1 5 -18 5 -16 0 -22 -2 -12 -5z"/>
<path d="M1678 2823 c7 -3 16 -2 19 1 4 3 -2 6 -13 5 -11 0 -14 -3 -6 -6z"/>
<path d="M1740 2821 c0 -5 9 -7 20 -4 11 3 20 7 20 9 0 2 -9 4 -20 4 -11 0
-20 -4 -20 -9z"/>
<path d="M2385 2780 c-3 -6 1 -7 9 -4 18 7 21 14 7 14 -6 0 -13 -4 -16 -10z"/>
<path d="M2420 2463 c0 -24 2 -43 4 -43 8 0 12 60 4 72 -4 8 -8 -4 -8 -29z"/>
<path d="M2433 2325 c0 -22 2 -30 4 -17 2 12 2 30 0 40 -3 9 -5 -1 -4 -23z"/>
<path d="M2446 2158 c4 -108 3 -117 -14 -122 -10 -4 -24 -17 -30 -31 -10 -22
-9 -25 12 -31 15 -3 40 3 65 15 45 24 53 39 19 37 -22 -1 -24 5 -35 104 -18
153 -23 160 -17 28z"/>
<path d="M2684 2161 c-13 -19 -21 -37 -18 -40 3 -3 10 1 15 9 8 12 10 9 6 -12
l-4 -27 28 23 c16 13 34 26 40 28 8 3 10 14 6 29 -9 37 -44 32 -73 -10z"/>
<path d="M2755 2120 c-3 -5 -1 -10 4 -10 6 0 11 5 11 10 0 6 -2 10 -4 10 -3 0
-8 -4 -11 -10z"/>
<path d="M2436 1833 c-12 -12 -5 -23 14 -23 11 0 20 4 20 9 0 11 -26 22 -34
14z"/>
<path d="M2358 1783 c7 -3 16 -2 19 1 4 3 -2 6 -13 5 -11 0 -14 -3 -6 -6z"/>
<path d="M2561 1781 c-7 -5 -12 -14 -10 -20 2 -6 10 -2 17 9 14 22 13 23 -7
11z"/>
<path d="M2340 1752 c0 -32 25 -67 48 -68 l23 -1 -21 19 c-11 10 -20 27 -20
37 0 11 -7 21 -15 25 -10 3 -15 -1 -15 -12z"/>
<path d="M2370 1550 c0 -5 3 -10 8 -10 4 0 6 -18 4 -39 -4 -37 13 -89 25 -77
3 3 1 11 -5 19 -13 16 -4 97 12 97 15 0 -16 20 -31 20 -7 0 -13 -4 -13 -10z"/>
<path d="M2436 1529 c-23 -110 -5 -168 60 -195 76 -32 135 19 174 147 11 35
20 65 20 66 0 1 -16 -3 -36 -9 -38 -10 -153 -6 -191 7 -18 6 -23 3 -27 -16z
m174 -47 c0 -34 -27 -82 -47 -82 -3 0 1 8 10 18 10 11 17 36 17 60 0 23 5 42
10 42 6 0 10 -17 10 -38z m-50 -42 c0 -5 -10 -15 -22 -21 -23 -12 -23 -12 -4
10 21 23 26 26 26 11z m-79 -17 c13 -16 12 -17 -3 -4 -17 13 -22 21 -14 21 2
0 10 -8 17 -17z m29 -48 c8 0 21 4 28 9 7 5 12 4 12 -2 0 -6 -9 -16 -19 -22
-23 -12 -76 4 -66 20 4 6 12 7 18 3 7 -4 19 -8 27 -8z"/>
<path d="M2833 1510 c-13 -5 -23 -14 -23 -19 0 -5 25 -60 55 -123 67 -138 102
-284 107 -436 3 -100 2 -104 -22 -122 -24 -18 -24 -20 -7 -37 15 -15 35 -18
125 -17 59 0 120 4 136 8 25 6 27 9 15 21 -8 8 -36 19 -63 24 -26 5 -53 14
-59 20 -6 6 -14 68 -19 138 -14 213 -42 384 -68 418 -4 6 -13 28 -20 50 -23
73 -35 85 -88 84 -26 0 -57 -4 -69 -9z m137 -279 c0 -5 -7 -11 -15 -15 -15 -5
-20 5 -8 17 9 10 23 9 23 -2z"/>
<path d="M2061 1144 c0 -11 3 -14 6 -6 3 7 2 16 -1 19 -3 4 -6 -2 -5 -13z"/>
<path d="M2052 1090 c0 -14 2 -19 5 -12 2 6 2 18 0 25 -3 6 -5 1 -5 -13z"/>
<path d="M2042 1008 c-1 -25 -5 -55 -8 -65 -5 -14 -4 -15 5 -7 8 7 11 31 8 65
l-3 54 -2 -47z"/>
<path d="M2027 865 c-4 -8 -2 -17 3 -20 6 -4 10 3 10 14 0 25 -6 27 -13 6z"/>
<path d="M1988 811 c-27 -8 -48 -20 -48 -27 0 -17 40 -25 62 -13 11 6 34 8 51
4 29 -5 30 -4 15 8 -10 8 -18 19 -18 25 0 18 -13 19 -62 3z"/>
</g>
</svg>
